<?xml version="1.0" standalone="no"?>
<!DOCTYPE svg PUBLIC "-//W3C//DTD SVG 1.1//EN" "http://www.w3.org/Graphics/SVG/1.1/DTD/svg11.dtd" >
<svg xmlns="http://www.w3.org/2000/svg" xmlns:xlink="http://www.w3.org/1999/xlink" version="1.1">
<metadata>
Created by FontForge 20201107 at Sun May 26 04:54:46 2024
 By 
</metadata>
<defs>
<font id="MatissePro-M-AlphaNum" horiz-adv-x="2048" vert-adv-y="2048" >
  <font-face 
    font-family="MatissePro-M-AlphaNum"
    font-weight="400"
    font-stretch="normal"
    units-per-em="2048"
    panose-1="2 0 5 3 0 0 0 0 0 0"
    ascent="1638"
    descent="-410"
    bbox="4 -246 2042 1774"
    underline-thickness="102"
    underline-position="-204"
    unicode-range="U+2160-325B"
  />
<missing-glyph horiz-adv-x="748" 
d="M68 0v1365h544v-1365h-544zM136 68h408v1229h-408v-1229z" />
    <glyph glyph-name=".notdef" horiz-adv-x="748" 
d="M68 0v1365h544v-1365h-544zM136 68h408v1229h-408v-1229z" />
    <glyph glyph-name=".null" horiz-adv-x="0" vert-adv-y="0" 
 />
    <glyph glyph-name="nonmarkingreturn" horiz-adv-x="682" 
 />
    <glyph glyph-name="uni2460" unicode="&#x2460;" 
d="M2023 754q0 -203 -79 -388t-213 -319t-319 -213.5t-388 -79.5t-388 79.5t-319 213.5t-213 319t-79 388q0 136 36 265.5t100.5 239t156.5 201.5t201.5 156.5t239 100.5t265.5 36t265.5 -36t239 -100.5t201.5 -156.5t156.5 -201.5t100.5 -239t36 -265.5zM1939 754
q0 186 -72.5 355.5t-195 291.5t-292 194t-355.5 72t-355.5 -72t-291.5 -194t-194 -291.5t-72 -355.5q0 -149 46 -289t130 -252.5t196.5 -197.5t252 -131t288.5 -46q186 0 355.5 72.5t292 195t195 292.5t72.5 356zM1278 143q0 -14 -18 -14h-465q-19 0 -19 14t15 17
q72 9 127 30q45 17 45 52q0 77 1 257t1 257q0 98 -1 268.5t-1 214.5q0 19 -4.5 26t-18.5 7q-21 0 -158 -35h-4q-6 0 -10 6t-4 12q0 14 10 17q138 49 299 123q2 2 10 2q13 0 13 -17v-4q-6 -83 -6 -620q0 -97 1 -269t1 -245q0 -35 45 -52q5 -2 14 -5t14 -5q60 -16 99 -20
q14 -3 14 -17z" />
    <glyph glyph-name="uni2461" unicode="&#x2461;" 
d="M2023 754q0 -203 -79 -388t-213 -319t-319 -213.5t-388 -79.5t-388 79.5t-319 213.5t-213 319t-79 388q0 136 36 265.5t100.5 239t156.5 201.5t201.5 156.5t239 100.5t265.5 36t265.5 -36t239 -100.5t201.5 -156.5t156.5 -201.5t100.5 -239t36 -265.5zM1939 754
q0 186 -72.5 355.5t-195 291.5t-292 194t-355.5 72t-355.5 -72t-291.5 -194t-194 -291.5t-72 -355.5q0 -149 46 -289t130 -252.5t196.5 -197.5t252 -131t288.5 -46q186 0 355.5 72.5t292 195t195 292.5t72.5 356zM1473 416q-37 -163 -50 -256q-5 -21 -18 -21h-4h-813
q-27 0 -27 23q0 13 6 31q98 286 408 497q74 51 123.5 90t100 89.5t76 103.5t25.5 108q0 116 -81.5 188t-198.5 72q-119 0 -197 -46.5t-78 -116.5q0 -43 35 -93q13 -24 12.5 -51.5t-24 -50t-61.5 -22.5h-15q-84 10 -84 110q0 145 119.5 238.5t288.5 93.5q187 0 304.5 -94.5
t117.5 -247.5q0 -115 -99.5 -219t-320.5 -228q-132 -74 -227 -173t-127 -201h55q288 0 442 10q134 11 185 41.5t98 130.5q6 12 12 12q1 0 3 -1t3 -1q11 -7 11 -10v-6z" />
    <glyph glyph-name="uni2462" unicode="&#x2462;" 
d="M2023 754q0 -203 -79 -388t-213 -319t-319 -213.5t-388 -79.5t-388 79.5t-319 213.5t-213 319t-79 388q0 136 36 265.5t100.5 239t156.5 201.5t201.5 156.5t239 100.5t265.5 36t265.5 -36t239 -100.5t201.5 -156.5t156.5 -201.5t100.5 -239t36 -265.5zM1939 754
q0 186 -72.5 355.5t-195 291.5t-292 194t-355.5 72t-355.5 -72t-291.5 -194t-194 -291.5t-72 -355.5q0 -149 46 -289t130 -252.5t196.5 -197.5t252 -131t288.5 -46q186 0 355.5 72.5t292 195t195 292.5t72.5 356zM1456 481q0 -118 -61 -201.5t-161 -122t-230 -38.5
q-178 0 -297.5 76t-137.5 180q-7 41 13.5 77.5t60.5 36.5q92 0 92 -90q0 -95 61 -149.5t197 -69.5q4 0 13.5 -1t13.5 -1q113 0 210 81t97 196q0 4 -1 11t-1 11q-14 158 -132.5 233.5t-309.5 75.5h-9q-20 0 -27 5.5t-7 19.5q0 15 8.5 20t32.5 5q81 1 150.5 15.5t127 43.5
t90.5 80t33 119v22q-9 112 -82 171t-201 59q-105 0 -173 -39.5t-68 -96.5q0 -22 16 -51q10 -17 10 -35q0 -30 -24.5 -52.5t-59.5 -22.5q-16 0 -24 2q-28 7 -41.5 30.5t-13.5 53.5q0 105 114.5 186.5t268.5 81.5q180 0 291.5 -81.5t111.5 -207.5q0 -67 -27.5 -123.5
t-72.5 -93t-101 -57.5t-114 -23q-25 0 -25 -4t27 -4q86 0 170 -44.5t138 -121.5t54 -162z" />
    <glyph glyph-name="uni2463" unicode="&#x2463;" 
d="M2023 754q0 -203 -79 -388t-213 -319t-319 -213.5t-388 -79.5t-388 79.5t-319 213.5t-213 319t-79 388q0 136 36 265.5t100.5 239t156.5 201.5t201.5 156.5t239 100.5t265.5 36t265.5 -36t239 -100.5t201.5 -156.5t156.5 -201.5t100.5 -239t36 -265.5zM1939 754
q0 186 -72.5 355.5t-195 291.5t-292 194t-355.5 72t-355.5 -72t-291.5 -194t-194 -291.5t-72 -355.5q0 -149 46 -289t130 -252.5t196.5 -197.5t252 -131t288.5 -46q186 0 355.5 72.5t292 195t195 292.5t72.5 356zM1468 504q0 -22 -5.5 -26.5t-24.5 -4.5h-262v-229
q0 -20 11 -31.5t34 -19.5q20 -8 26 -11q55 -16 80 -20q14 -3 14 -17t-18 -14h-418q-18 0 -18 14t14 17q46 8 107 31q23 8 34 19.5t11 31.5v229h-555q-17 0 -22 5.5t-5 21.5q0 19 12 37q321 418 639 849q11 15 23 15q8 0 12 -2q19 -7 19 -27v-835h262q18 0 24 -5.5t6 -27.5z
M1063 1174l-8 2q-17 -22 -100 -131.5t-199.5 -263t-186.5 -244.5h484q2 504 10 637z" />
    <glyph glyph-name="uni2464" unicode="&#x2464;" 
d="M2023 754q0 -203 -79 -388t-213 -319t-319 -213.5t-388 -79.5t-388 79.5t-319 213.5t-213 319t-79 388q0 136 36 265.5t100.5 239t156.5 201.5t201.5 156.5t239 100.5t265.5 36t265.5 -36t239 -100.5t201.5 -156.5t156.5 -201.5t100.5 -239t36 -265.5zM1939 754
q0 186 -72.5 355.5t-195 291.5t-292 194t-355.5 72t-355.5 -72t-291.5 -194t-194 -291.5t-72 -355.5q0 -149 46 -289t130 -252.5t196.5 -197.5t252 -131t288.5 -46q186 0 355.5 72.5t292 195t195 292.5t72.5 356zM1464 506q0 -183 -125.5 -293.5t-326.5 -110.5
q-173 0 -288 70.5t-134 177.5q0 2 -1 8t-1 9q0 32 17.5 57t51.5 25q86 0 86 -84v-7v-2q0 -89 78 -145.5t185 -56.5q136 0 231.5 87t95.5 232v8q-4 154 -107.5 251t-248.5 97q-89 0 -164.5 -34.5t-120.5 -98.5q-16 -20 -37 -20q-8 0 -14 2q-18 5 -18 27q0 12 2 20
q54 295 100 621q4 20 16 20h564q55 0 86 27q6 6 10 6q1 0 3 -1t3 -1q2 -2 2 -8v-5q-22 -85 -31 -127q-4 -12 -16 -12h-586q-33 -191 -76 -454v-5q0 -8 7 -8q2 0 8 6q28 34 105.5 69.5t137.5 39.5q16 2 50 2q197 0 326.5 -107t129.5 -282z" />
    <glyph glyph-name="uni2465" unicode="&#x2465;" 
d="M2023 754q0 -203 -79 -388t-213 -319t-319 -213.5t-388 -79.5t-388 79.5t-319 213.5t-213 319t-79 388q0 136 36 265.5t100.5 239t156.5 201.5t201.5 156.5t239 100.5t265.5 36t265.5 -36t239 -100.5t201.5 -156.5t156.5 -201.5t100.5 -239t36 -265.5zM1939 754
q0 186 -72.5 355.5t-195 291.5t-292 194t-355.5 72t-355.5 -72t-291.5 -194t-194 -291.5t-72 -355.5q0 -149 46 -289t130 -252.5t196.5 -197.5t252 -131t288.5 -46q186 0 355.5 72.5t292 195t195 292.5t72.5 356zM1473 506q0 -162 -118.5 -275.5t-320.5 -113.5
q-94 0 -176.5 32t-150 96.5t-107 175.5t-39.5 257q0 336 130 527.5t364 195.5h4q143 0 255.5 -80t117.5 -180v-4q0 -30 -19 -52.5t-49 -23.5h-4q-39 0 -60.5 21t-21.5 57v12v16q0 73 -65.5 123.5t-161.5 50.5q-81 0 -147 -33.5t-117.5 -103t-80 -188.5t-28.5 -279v-8
q41 85 142.5 137t211.5 54h8q183 0 308 -117t125 -297zM1346 500v8q-3 153 -94 246.5t-218 93.5h-8q-133 -3 -232.5 -87t-99.5 -216v-10q4 -156 107 -258.5t235 -102.5q129 0 219.5 86.5t90.5 239.5z" />
    <glyph glyph-name="uni2466" unicode="&#x2466;" 
d="M2023 754q0 -203 -79 -388t-213 -319t-319 -213.5t-388 -79.5t-388 79.5t-319 213.5t-213 319t-79 388q0 136 36 265.5t100.5 239t156.5 201.5t201.5 156.5t239 100.5t265.5 36t265.5 -36t239 -100.5t201.5 -156.5t156.5 -201.5t100.5 -239t36 -265.5zM1939 754
q0 186 -72.5 355.5t-195 291.5t-292 194t-355.5 72t-355.5 -72t-291.5 -194t-194 -291.5t-72 -355.5q0 -149 46 -289t130 -252.5t196.5 -197.5t252 -131t288.5 -46q186 0 355.5 72.5t292 195t195 292.5t72.5 356zM1497 1307q0 -10 -10 -23q-233 -313 -340 -562t-129 -575
q-4 -52 -14 -67q-20 -29 -84 -29q-82 0 -82 62q0 10 4 26q54 257 211.5 577.5t318.5 481.5h-506q-110 0 -148 -24.5t-90 -109.5q-5 -7 -7 -11q-9 -9 -15 -9h-4q-8 4 -8 9v4q27 121 43 239q3 21 20 21h822q18 0 18 -10z" />
    <glyph glyph-name="uni2467" unicode="&#x2467;" 
d="M2023 754q0 -203 -79 -388t-213 -319t-319 -213.5t-388 -79.5t-388 79.5t-319 213.5t-213 319t-79 388q0 136 36 265.5t100.5 239t156.5 201.5t201.5 156.5t239 100.5t265.5 36t265.5 -36t239 -100.5t201.5 -156.5t156.5 -201.5t100.5 -239t36 -265.5zM1939 754
q0 186 -72.5 355.5t-195 291.5t-292 194t-355.5 72t-355.5 -72t-291.5 -194t-194 -291.5t-72 -355.5q0 -149 46 -289t130 -252.5t196.5 -197.5t252 -131t288.5 -46q186 0 355.5 72.5t292 195t195 292.5t72.5 356zM1483 457q0 -110 -63 -189.5t-164.5 -118t-229.5 -38.5
q-124 0 -225.5 38t-165.5 119t-64 193t89.5 202.5t240.5 135.5q-276 125 -276 307q0 130 112 213.5t287 83.5q173 0 289.5 -85t116.5 -212q0 -94 -80.5 -171t-210.5 -118q344 -129 344 -360zM1313 1108q0 105 -90 173.5t-211 68.5q-124 0 -199.5 -65.5t-75.5 -178.5
q0 -146 332 -264q244 70 244 266zM1343 446v9q-3 213 -372 321q-128 -39 -210.5 -120t-82.5 -191v-4q1 -75 53 -143.5t131.5 -108t159.5 -39.5q321 0 321 276z" />
    <glyph glyph-name="uni2468" unicode="&#x2468;" 
d="M2023 754q0 -203 -79 -388t-213 -319t-319 -213.5t-388 -79.5t-388 79.5t-319 213.5t-213 319t-79 388q0 136 36 265.5t100.5 239t156.5 201.5t201.5 156.5t239 100.5t265.5 36t265.5 -36t239 -100.5t201.5 -156.5t156.5 -201.5t100.5 -239t36 -265.5zM1939 754
q0 186 -72.5 355.5t-195 291.5t-292 194t-355.5 72t-355.5 -72t-291.5 -194t-194 -291.5t-72 -355.5q0 -149 46 -289t130 -252.5t196.5 -197.5t252 -131t288.5 -46q186 0 355.5 72.5t292 195t195 292.5t72.5 356zM1499 813q0 -354 -127 -530.5t-366 -176.5
q-135 0 -254.5 83.5t-130.5 177.5v10q0 33 18 55.5t55 22.5q41 0 60.5 -24.5t19.5 -80.5q0 -76 72 -130t164 -54q168 0 268 148t104 466q-57 -84 -157 -132t-203 -48q-184 0 -309 107.5t-125 285.5q0 79 32.5 153t89 130t139 89.5t177.5 33.5q104 0 188.5 -34.5t149 -103.5
t100 -183t35.5 -265zM1366 954v11q-3 162 -97.5 269t-244.5 107q-122 0 -215.5 -93t-93.5 -240v-9q3 -159 94.5 -245t224.5 -88h8q130 0 227 80t97 208z" />
    <glyph glyph-name="uni2469" unicode="&#x2469;" 
d="M2023 774q0 -136 -36 -265.5t-100.5 -239t-156.5 -201.5t-201.5 -156.5t-239 -100.5t-265.5 -36t-265.5 36t-239 100.5t-201.5 156.5t-156.5 201.5t-100.5 239t-36 265.5q0 203 79 388t213 319t319 213.5t388 79.5t388 -79.5t319 -213.5t213 -319t79 -388zM1939 774
q0 186 -72.5 355.5t-195 292t-292 194.5t-355.5 72q-149 0 -288.5 -46t-252 -130.5t-196.5 -197t-130 -252t-46 -288.5q0 -186 72 -355.5t194 -292t291.5 -195t355.5 -72.5t355.5 72.5t292 195t195 292t72.5 355.5zM848 186q0 -16 -21 -16h-395q-20 0 -20 16t16 19
q43 6 98 28q20 9 30.5 19t10.5 29q0 75 1 248.5t1 248.5q0 95 -1 260t-1 207q0 10 -0.5 14.5t-4 8.5t-11.5 4q-10 0 -129 -29h-4q-7 0 -12 6.5t-5 14.5q0 13 13 16q83 34 256 117q8 4 12 4q12 0 12 -19v-4q-6 -80 -6 -600q0 -94 1 -260t1 -237q0 -31 43 -48q48 -20 98 -28
q17 -7 17 -19zM1630 776q0 -626 -334 -626q-331 0 -331 626q0 621 331 621q165 0 249.5 -159t84.5 -462zM1505 774q0 160 -14.5 272.5t-43.5 175t-65.5 90t-85.5 27.5q-66 0 -109.5 -48.5t-70 -176.5t-26.5 -340q0 -163 14 -275t42.5 -174.5t64.5 -89t85 -26.5t85.5 26.5
t65.5 89t43.5 175t14.5 274.5z" />
    <glyph glyph-name="uni246A" unicode="&#x246a;" 
d="M2023 774q0 -136 -36 -265.5t-100.5 -239t-156.5 -201.5t-201.5 -156.5t-239 -100.5t-265.5 -36t-265.5 36t-239 100.5t-201.5 156.5t-156.5 201.5t-100.5 239t-36 265.5q0 203 79 388t213 319t319 213.5t388 79.5t388 -79.5t319 -213.5t213 -319t79 -388zM1939 774
q0 186 -72.5 355.5t-195 292t-292 194.5t-355.5 72q-149 0 -288.5 -46t-252 -130.5t-196.5 -197t-130 -252t-46 -288.5q0 -186 72 -355.5t194 -292t291.5 -195t355.5 -72.5t355.5 72.5t292 195t195 292t72.5 355.5zM1587 184q0 -16 -18 -16h-412q-18 0 -18 16t14 19
q52 8 102 28q43 16 43 48q0 75 1 249.5t1 247.5q0 95 -1 260t-1 207q0 16 -3 22.5t-13 6.5h-6q-18 0 -51 -8q-8 -2 -41 -10.5t-58 -14.5h-4q-16 0 -16 21q0 12 12 18q109 39 289 119q2 2 10 2q15 0 15 -17v-6q-7 -93 -7 -600q0 -94 1 -260t1 -237q0 -32 43 -48
q39 -15 103 -28q14 -3 14 -19zM903 184q0 -16 -20 -16h-410q-20 0 -20 16t16 19q54 9 102 28q43 16 43 48q0 75 1 249.5t1 247.5q0 95 -1 260t-1 207q0 16 -3 22.5t-13 6.5h-6q-18 0 -51 -8q-12 -3 -44.5 -11.5t-54.5 -13.5h-4q-16 0 -16 23q0 11 10 16q119 41 289 119
q4 2 10 2q14 0 14 -17v-6q-4 -53 -4 -600q0 -94 1 -260t1 -237q0 -32 41 -48q40 -15 103 -28q16 -3 16 -19z" />
    <glyph glyph-name="uni246B" unicode="&#x246b;" 
d="M2023 774q0 -136 -36 -265.5t-100.5 -239t-156.5 -201.5t-201.5 -156.5t-239 -100.5t-265.5 -36t-265.5 36t-239 100.5t-201.5 156.5t-156.5 201.5t-100.5 239t-36 265.5q0 203 79 388t213 319t319 213.5t388 79.5t388 -79.5t319 -213.5t213 -319t79 -388zM1939 774
q0 186 -72.5 355.5t-195 292t-292 194.5t-355.5 72q-149 0 -288.5 -46t-252 -130.5t-196.5 -197t-130 -252t-46 -288.5q0 -186 72 -355.5t194 -292t291.5 -195t355.5 -72.5t355.5 72.5t292 195t195 292t72.5 355.5zM848 186q0 -16 -21 -16h-395q-20 0 -20 16t16 19
q58 12 98 28q41 18 41 48q0 75 1 249.5t1 247.5q0 95 -1 260t-1 207q0 11 -0.5 15.5t-4.5 8t-13 3.5q-20 0 -127 -29h-4q-7 0 -12 6.5t-5 14.5q0 12 13 18q104 41 256 117q2 2 10 2q14 0 14 -17v-6q-6 -80 -6 -600q0 -94 1 -260t1 -237q0 -31 43 -48q30 -13 98 -28
q17 -3 17 -19zM1618 440q-33 -136 -45 -247q-3 -23 -19 -23h-559q-34 0 -34 23q0 10 2 16q41 165 120 288t207 224q71 56 112.5 124t53.5 124t12 123q0 247 -176 247q-87 0 -135.5 -35t-48.5 -92q0 -54 45 -114q14 -20 14 -43q0 -31 -25.5 -56.5t-58.5 -25.5q-8 0 -24 4
q-66 20 -66 108q0 135 76 222.5t227 87.5q135 0 218 -87.5t83 -228.5q0 -131 -56 -227.5t-216 -206.5q-206 -135 -266 -375q132 0 282 9q61 5 96 12.5t63.5 28.5t45.5 45.5t47 76.5q3 16 15 13q10 -3 10 -11v-4z" />
    <glyph glyph-name="uni246C" unicode="&#x246c;" 
d="M2023 774q0 -136 -36 -265.5t-100.5 -239t-156.5 -201.5t-201.5 -156.5t-239 -100.5t-265.5 -36t-265.5 36t-239 100.5t-201.5 156.5t-156.5 201.5t-100.5 239t-36 265.5q0 203 79 388t213 319t319 213.5t388 79.5t388 -79.5t319 -213.5t213 -319t79 -388zM1939 774
q0 186 -72.5 355.5t-195 292t-292 194.5t-355.5 72q-149 0 -288.5 -46t-252 -130.5t-196.5 -197t-130 -252t-46 -288.5q0 -186 72 -355.5t194 -292t291.5 -195t355.5 -72.5t355.5 72.5t292 195t195 292t72.5 355.5zM848 186q0 -16 -21 -16h-395q-20 0 -20 16t16 19
q43 6 98 28q20 9 30.5 19t10.5 29q0 75 1 248.5t1 248.5q0 95 -1 260t-1 207q0 10 -0.5 14.5t-4 8.5t-11.5 4q-10 0 -129 -29h-4q-7 0 -12 6.5t-5 14.5q0 13 13 16q83 34 256 117q8 4 12 4q12 0 12 -19v-4q-6 -80 -6 -600q0 -94 1 -260t1 -237q0 -31 43 -48q43 -19 98 -28
q17 -7 17 -19zM1618 506q0 -176 -87 -265t-257 -89q-84 0 -146.5 20t-98.5 55t-54.5 74.5t-22.5 85.5v10q0 40 20 67.5t56 27.5q37 0 59.5 -25t22.5 -70q0 -41 2 -63.5t9.5 -47.5t23 -37.5t43 -22.5t69.5 -15q4 0 11.5 -1t11.5 -1q91 0 151 72.5t60 185.5q0 27 -2 41
q-13 148 -99.5 218.5t-244.5 72.5q-18 0 -25.5 4.5t-7.5 17.5q0 11 5.5 16t11 6t16.5 1q153 2 240.5 62t87.5 186v26q-6 104 -57.5 162.5t-147.5 58.5q-82 0 -124 -25.5t-42 -64.5q0 -31 24 -65q13 -16 13 -37q0 -31 -23 -56.5t-57 -25.5q-9 0 -25 4q-57 16 -57 84
q0 105 80 175.5t217 70.5q148 0 232.5 -79t84.5 -204q0 -131 -69.5 -208.5t-173.5 -80.5q-25 0 -25 -4q9 -2 25 -2q105 0 187.5 -94.5t82.5 -220.5z" />
    <glyph glyph-name="uni246D" unicode="&#x246d;" 
d="M2023 774q0 -136 -36 -265.5t-100.5 -239t-156.5 -201.5t-201.5 -156.5t-239 -100.5t-265.5 -36t-265.5 36t-239 100.5t-201.5 156.5t-156.5 201.5t-100.5 239t-36 265.5q0 203 79 388t213 319t319 213.5t388 79.5t388 -79.5t319 -213.5t213 -319t79 -388zM1939 774
q0 186 -72.5 355.5t-195 292t-292 194.5t-355.5 72q-149 0 -288.5 -46t-252 -130.5t-196.5 -197t-130 -252t-46 -288.5q0 -186 72 -355.5t194 -292t291.5 -195t355.5 -72.5t355.5 72.5t292 195t195 292t72.5 355.5zM1618 532q0 -11 -1.5 -17.5t-7 -9t-9 -3t-13.5 -0.5h-133
v-221q0 -30 41 -48q6 -2 23.5 -9t32 -11.5t28.5 -7.5q14 -6 14 -19q0 -16 -18 -16h-367q-20 0 -20 16t16 19q40 7 92 28q43 16 43 48v221h-403q-18 0 -23.5 5t-5.5 21q0 21 8 29q0 3 5 8q263 451 479 821q10 17 22 17q2 0 6.5 -1t6.5 -1q20 -4 20 -29v-807h133
q12 0 17.5 -1.5t9.5 -9t4 -22.5zM868 186q0 -16 -20 -16h-395q-21 0 -21 16t17 19q58 12 98 28q41 18 41 48q0 75 1 249.5t1 247.5q0 95 -1 260t-1 207q0 15 -3 21t-16 6q-20 0 -127 -29h-4q-16 0 -16 21q0 12 12 18q104 41 256 117q2 2 10 2q15 0 15 -17v-6q-6 -80 -6 -600
q0 -94 1 -260t1 -237q0 -31 43 -48q30 -13 98 -28q16 -3 16 -19zM1348 1163h-5q-33 -57 -159 -275.5t-187 -322.5h342q0 407 9 598z" />
    <glyph glyph-name="uni246E" unicode="&#x246e;" 
d="M2023 774q0 -136 -36 -265.5t-100.5 -239t-156.5 -201.5t-201.5 -156.5t-239 -100.5t-265.5 -36t-265.5 36t-239 100.5t-201.5 156.5t-156.5 201.5t-100.5 239t-36 265.5q0 203 79 388t213 319t319 213.5t388 79.5t388 -79.5t319 -213.5t213 -319t79 -388zM1939 774
q0 186 -72.5 355.5t-195 292t-292 194.5t-355.5 72q-149 0 -288.5 -46t-252 -130.5t-196.5 -197t-130 -252t-46 -288.5q0 -186 72 -355.5t194 -292t291.5 -195t355.5 -72.5t355.5 72.5t292 195t195 292t72.5 355.5zM838 186q0 -16 -21 -16h-395q-21 0 -21 16q0 14 17 17
q53 11 98 30q21 9 32 19.5t11 28.5q0 75 1 248.5t1 248.5q0 95 -1 260t-1 207q0 10 -0.5 14.5t-4.5 8.5t-13 4q-10 0 -129 -29h-4q-7 0 -12 6.5t-5 14.5q0 13 12 16q83 34 256 117q4 2 11 2q14 0 14 -17v-4q-4 -53 -4 -600q0 -94 1 -260t1 -237q0 -19 10.5 -29t30.5 -19
q45 -18 98 -30q17 -3 17 -17zM1616 537q0 -188 -85.5 -294t-268.5 -106q-74 0 -135 24.5t-97.5 62.5t-56 79t-21.5 80v8q0 87 74 90q35 0 55.5 -21.5t20.5 -64.5v-10v-16q0 -45 11.5 -80.5t47 -62.5t92.5 -27q116 0 178 76.5t62 216.5v20q-5 152 -63.5 242t-182.5 90
q-122 0 -205 -129q-15 -21 -24 -21q-5 0 -17 4q-12 5 -12 37v19q23 321 39 600q0 16 16 16h408q54 0 82 25l6 4q4 4 8 4h4q9 -3 9 -8v-6q-18 -65 -27 -123q-3 -15 -18 -15h-431q-11 -147 -28 -438q0 -10 2 -10q4 4 10 12q26 33 74.5 64t93.5 34h27q165 0 258.5 -103
t93.5 -273z" />
    <glyph glyph-name="uni246F" unicode="&#x246f;" 
d="M2023 774q0 -136 -36 -265.5t-100.5 -239t-156.5 -201.5t-201.5 -156.5t-239 -100.5t-265.5 -36t-265.5 36t-239 100.5t-201.5 156.5t-156.5 201.5t-100.5 239t-36 265.5q0 203 79 388t213 319t319 213.5t388 79.5t388 -79.5t319 -213.5t213 -319t79 -388zM1939 774
q0 186 -72.5 355.5t-195 292t-292 194.5t-355.5 72q-149 0 -288.5 -46t-252 -130.5t-196.5 -197t-130 -252t-46 -288.5q0 -186 72 -355.5t194 -292t291.5 -195t355.5 -72.5t355.5 72.5t292 195t195 292t72.5 355.5zM817 186q0 -16 -20 -16h-396q-20 0 -20 16q0 14 16 17
q55 11 99 30q21 9 32 19.5t11 28.5q0 75 1 248.5t1 248.5q0 95 -1 260t-1 207q0 10 -1 14.5t-5 8.5t-13 4q-10 0 -129 -29h-4q-16 0 -16 21q0 13 12 16q83 34 256 117q4 2 10 2q15 0 15 -17v-4q-5 -66 -5 -600q0 -94 1.5 -260t1.5 -237q0 -31 40 -48q44 -18 99 -30
q16 -3 16 -17zM1614 530q0 -168 -81 -274t-239 -106q-170 0 -258 133t-88 419q0 135 9.5 238t34.5 193.5t66 148t105 90.5t150 33q115 0 187.5 -72t72.5 -174q0 -32 -19 -57t-57 -25q-67 0 -67 74v16q2 12 2 37q0 142 -129 142q-136 0 -189.5 -131t-56.5 -449
q80 154 235 154q156 0 239 -104.5t83 -285.5zM1497 528q-1 157 -60.5 237.5t-154.5 80.5q-103 0 -160 -73t-57 -198v-12q3 -167 63 -257.5t164 -90.5t154.5 77.5t50.5 235.5z" />
    <glyph glyph-name="uni2470" unicode="&#x2470;" 
d="M2023 774q0 -136 -36 -265.5t-100.5 -239t-156.5 -201.5t-201.5 -156.5t-239 -100.5t-265.5 -36t-265.5 36t-239 100.5t-201.5 156.5t-156.5 201.5t-100.5 239t-36 265.5q0 203 79 388t213 319t319 213.5t388 79.5t388 -79.5t319 -213.5t213 -319t79 -388zM1939 774
q0 186 -72.5 355.5t-195 292t-292 194.5t-355.5 72q-149 0 -288.5 -46t-252 -130.5t-196.5 -197t-130 -252t-46 -288.5q0 -186 72 -355.5t194 -292t291.5 -195t355.5 -72.5t355.5 72.5t292 195t195 292t72.5 355.5zM868 186q0 -16 -20 -16h-395q-21 0 -21 16q0 14 17 17
q48 10 98 30q20 9 30.5 19t10.5 29q0 75 1 248.5t1 248.5q0 95 -1 260t-1 207q0 14 -3 20.5t-14 6.5q-10 0 -129 -29h-4q-6 0 -10 6.5t-4 12.5q0 16 10 18q83 34 256 117q4 2 10 2q15 0 15 -17v-4q-6 -80 -6 -600q0 -94 1 -260t1 -237q0 -31 43 -48q45 -18 98 -30
q16 -3 16 -17zM1649 1354q0 -9 -11 -23q-182 -243 -251.5 -470.5t-86.5 -627.5q0 -4 -1 -20t-2.5 -26.5t-6.5 -18.5q-13 -29 -71 -29q-42 0 -58 14.5t-16 45.5q0 16 2 26q42 308 139 577t236 445h-305q-45 0 -76 -5t-51.5 -13t-37 -27.5t-26.5 -37.5t-27 -54q-5 -9 -8 -11.5
t-12 -2.5q-15 0 -12 16q27 144 37 231q1 16 5.5 19.5t18.5 3.5h596q25 0 25 -12z" />
    <glyph glyph-name="uni2471" unicode="&#x2471;" 
d="M2023 774q0 -136 -36 -265.5t-100.5 -239t-156.5 -201.5t-201.5 -156.5t-239 -100.5t-265.5 -36t-265.5 36t-239 100.5t-201.5 156.5t-156.5 201.5t-100.5 239t-36 265.5q0 203 79 388t213 319t319 213.5t388 79.5t388 -79.5t319 -213.5t213 -319t79 -388zM1939 774
q0 186 -72.5 355.5t-195 292t-292 194.5t-355.5 72q-149 0 -288.5 -46t-252 -130.5t-196.5 -197t-130 -252t-46 -288.5q0 -186 72 -355.5t194 -292t291.5 -195t355.5 -72.5t355.5 72.5t292 195t195 292t72.5 355.5zM848 186q0 -16 -21 -16h-395q-20 0 -20 16q0 14 16 19
q47 7 98 28q21 9 32 19.5t11 28.5v497v467q0 10 -0.5 14.5t-4.5 8.5t-13 4q-10 0 -129 -29h-4q-7 0 -12 6.5t-5 14.5q0 13 13 16q83 34 256 117q4 2 10 2q14 0 14 -17v-4q-4 -53 -4 -600q0 -94 1 -260t1 -237q0 -19 10.5 -29t30.5 -19q48 -20 98 -28q17 -6 17 -19zM1624 481
q0 -168 -88 -253t-244 -85q-158 0 -247 86.5t-89 247.5q0 224 242 336q-110 63 -158.5 127.5t-48.5 163.5q0 128 76.5 210.5t218.5 82.5q144 0 223.5 -80.5t79.5 -210.5q0 -96 -50 -158t-165 -117q250 -127 250 -350zM1485 1106q0 103 -55.5 168t-145.5 65t-139 -57
t-49 -152q0 -4 1 -12.5t1 -13.5q5 -73 57.5 -130.5t165.5 -109.5q164 84 164 242zM1505 471q0 96 -58 166.5t-196 140.5q-96 -47 -139 -114.5t-43 -180.5q0 -118 61 -197t162 -79q106 0 159.5 68t53.5 196z" />
    <glyph glyph-name="uni2472" unicode="&#x2472;" 
d="M2023 774q0 -136 -36 -265.5t-100.5 -239t-156.5 -201.5t-201.5 -156.5t-239 -100.5t-265.5 -36t-265.5 36t-239 100.5t-201.5 156.5t-156.5 201.5t-100.5 239t-36 265.5q0 203 79 388t213 319t319 213.5t388 79.5t388 -79.5t319 -213.5t213 -319t79 -388zM1939 774
q0 186 -72.5 355.5t-195 292t-292 194.5t-355.5 72q-149 0 -288.5 -46t-252 -130.5t-196.5 -197t-130 -252t-46 -288.5q0 -186 72 -355.5t194 -292t291.5 -195t355.5 -72.5t355.5 72.5t292 195t195 292t72.5 355.5zM838 186q0 -16 -21 -16h-395q-21 0 -21 16t17 19
q43 6 98 28q20 9 30.5 19t10.5 29q0 75 1 248.5t1 248.5q0 95 -1 260t-1 207q0 10 -0.5 14.5t-4 8.5t-11.5 4q-10 0 -129 -29h-4q-7 0 -12 6.5t-5 14.5q0 13 12 16q83 34 256 117q8 4 13 4q12 0 12 -19v-4q-6 -80 -6 -600q0 -94 1 -260t1 -237q0 -18 11 -28.5t32 -19.5
q48 -20 98 -28q17 -6 17 -19zM1622 844q0 -134 -10.5 -237.5t-36 -191.5t-67 -145t-105 -88.5t-148.5 -31.5q-128 0 -196 68.5t-78 174.5v10q0 30 17.5 52t50.5 22q43 0 60 -27.5t18 -67t5.5 -79t34.5 -67t93 -27.5q134 0 189.5 131t55.5 448q-66 -153 -235 -153
q-153 0 -237.5 101.5t-84.5 279.5q0 170 85.5 275.5t240.5 105.5q166 0 257 -134.5t91 -418.5zM1495 983q0 172 -58 264t-159 92q-213 0 -213 -321q0 -152 60.5 -235t154.5 -83q109 0 162 76t53 207z" />
    <glyph glyph-name="uni2473" unicode="&#x2473;" 
d="M2023 774q0 -136 -36 -265.5t-100.5 -239t-156.5 -201.5t-201.5 -156.5t-239 -100.5t-265.5 -36t-265.5 36t-239 100.5t-201.5 156.5t-156.5 201.5t-100.5 239t-36 265.5q0 203 79 388t213 319t319 213.5t388 79.5t388 -79.5t319 -213.5t213 -319t79 -388zM1939 774
q0 186 -72.5 355.5t-195 292t-292 194.5t-355.5 72q-149 0 -288.5 -46t-252 -130.5t-196.5 -197t-130 -252t-46 -288.5q0 -186 72 -355.5t194 -292t291.5 -195t355.5 -72.5t355.5 72.5t292 195t195 292t72.5 355.5zM971 440q-30 -135 -43 -245q-3 -23 -17 -23h-526
q-35 0 -35 25q0 8 2 14q39 166 114 288.5t196 223.5q96 80 130.5 172.5t34.5 198.5q0 121 -39 183t-124 62q-82 0 -128.5 -35t-46.5 -92q0 -51 43 -112q13 -20 13 -41q0 -32 -23.5 -58t-54.5 -26q-7 0 -23 4q-61 20 -61 108q0 134 71.5 222t213.5 88q127 0 205.5 -87.5
t78.5 -228.5q0 -131 -53 -227.5t-205 -206.5q-191 -136 -252 -377q95 0 267 11q58 5 91 12.5t59.5 28.5t42.5 45t44 77q3 13 8 13t7 -2q10 -3 10 -11v-4zM1700 776q0 -317 -80.5 -471.5t-243.5 -154.5q-159 0 -240 158t-81 468q0 621 321 621q161 0 242.5 -158.5
t81.5 -462.5zM1581 774q0 160 -15 272.5t-43.5 175t-64 90t-82.5 27.5q-46 0 -81.5 -27.5t-64.5 -90t-44 -175.5t-15 -272q0 -162 15 -275t44 -175t64.5 -88.5t81.5 -26.5q47 0 82.5 26.5t64 88.5t43.5 175t15 275z" />
    <glyph glyph-name="uni2160" unicode="&#x2160;" 
d="M1278 14q0 -14 -16 -14h-471q-17 0 -17 14t17 17q43 6 112 39q47 23 47 67q0 82 1 292t1 333q0 140 -1 340.5t-1 279.5q0 45 -47 68q-69 33 -112 39q-17 3 -17 16q0 15 17 15h471q16 0 16 -15q0 -13 -16 -16q-45 -6 -113 -39q-47 -23 -47 -68q0 -79 -1 -279.5t-1 -340.5
q0 -123 1 -333t1 -292q0 -44 47 -67q68 -33 113 -39q16 -3 16 -17z" />
    <glyph glyph-name="uni2161" unicode="&#x2161;" 
d="M1632 14q0 -14 -16 -14h-471q-17 0 -17 14t17 17q43 6 112 39q48 23 48 67q0 82 1 292t1 333q0 140 -1 340.5t-1 279.5q0 45 -48 68q-69 33 -112 39q-17 3 -17 16q0 15 17 15h471q16 0 16 -15q0 -13 -16 -16q-45 -6 -113 -39q-47 -23 -47 -68q0 -79 -1 -279.5t-1 -340.5
q0 -123 1 -333t1 -292q0 -44 47 -67q68 -33 113 -39q16 -3 16 -17zM922 14q0 -14 -17 -14h-471q-16 0 -16 14t16 17q45 6 113 39q47 23 47 67q0 82 1 292t1 333q0 140 -1 340.5t-1 279.5q0 45 -47 68q-68 33 -113 39q-16 3 -16 16q0 15 16 15h471q17 0 17 -15q0 -13 -17 -16
q-43 -6 -112 -39q-48 -23 -48 -68q0 -79 -1 -279.5t-1 -340.5q0 -123 1 -333t1 -292q0 -44 48 -67q69 -33 112 -39q17 -3 17 -17z" />
    <glyph glyph-name="uni2162" unicode="&#x2162;" 
d="M1735 14q0 -14 -17 -14h-1384q-17 0 -17 14t17 17q43 6 112 39q48 23 48 67q0 82 1 292t1 333q0 140 -1 340.5t-1 279.5q0 45 -48 68q-69 33 -112 39q-17 3 -17 16q0 15 17 15h1384q17 0 17 -15q0 -13 -17 -16q-43 -6 -112 -39q-47 -23 -47 -68q0 -79 -1.5 -279.5
t-1.5 -340.5q0 -123 1.5 -333t1.5 -292q0 -44 47 -67q69 -33 112 -39q17 -3 17 -17zM1409 762q0 140 -1 340.5t-1 279.5q0 45 -47 68q-105 57 -217 0q-47 -23 -47 -68q0 -79 -1 -279.5t-1 -340.5q0 -123 1 -333t1 -292q0 -44 47 -67q105 -57 217 0q47 23 47 67q0 82 1 292
t1 333zM946 762q0 140 -1 340.5t-1 279.5q0 45 -47 68q-99 52 -205 0q-47 -23 -47 -68q0 -79 -1 -279.5t-1 -340.5q0 -123 1 -333t1 -292q0 -44 47 -67q99 -52 205 0q47 23 47 67q0 82 1 292t1 333z" />
    <glyph glyph-name="uni2163" unicode="&#x2163;" 
d="M1935 1503q0 -15 -10 -18q-110 -33 -155 -62.5t-66 -93.5q-61 -190 -410 -1321q0 -1 -1.5 -5t-2 -5.5t-2 -5t-2 -4.5l-2 -4t-2.5 -4l-3 -3t-4 -2.5l-4 -1t-5 -0.5q-10 0 -16.5 8.5t-14.5 28.5q-24 66 -223 607t-291 784q-9 25 -33 40t-51 15q-16 0 -31 -6
q-47 -23 -47 -68q0 -79 -1 -279.5t-1 -340.5q0 -123 1 -333t1 -292q0 -44 47 -67q68 -33 113 -39q16 -3 16 -17t-16 -14h-471q-17 0 -17 14t17 17q43 6 112 39q48 23 48 67q0 82 1 292t1 333q0 140 -1 340.5t-1 279.5q0 45 -48 68q-69 33 -112 39q-17 3 -17 16q0 15 17 15
h788q6 0 11.5 -4.5t5.5 -10.5q0 -15 -15 -18q-84 -23 -118 -49q-13 -10 -13 -25q0 -10 2 -14q312 -857 402 -1108q241 799 305 1032q10 42 10 59q0 41 -33 63.5t-118 39.5q-17 3 -17 18q0 9 3 13t14 4h442q18 0 18 -17z" />
    <glyph glyph-name="uni2164" unicode="&#x2164;" 
d="M1812 1503q0 -8 -8 -16q-1 0 -3 -1t-3 -1q-101 -21 -143 -52.5t-70 -103.5q-144 -365 -508 -1323q-1 -1 -2.5 -4t-2.5 -4.5t-2.5 -4.5t-3 -4.5t-3.5 -4t-3.5 -4t-3.5 -3t-4 -2.5t-4.5 -1.5t-5.5 -0.5q-21 0 -36 37q-211 508 -596 1391q-12 32 -64 57q-18 9 -98 33
q-12 4 -12 14q0 15 12 15h487q15 0 15 -17q0 -15 -19 -18q-68 -13 -102.5 -31t-34.5 -37q0 -6 2 -8q302 -743 491 -1171q237 615 404 1085q8 21 8 45q0 42 -35.5 66t-115.5 51q-17 7 -17 18q0 7 5.5 12t11.5 5h446q18 0 18 -17z" />
    <glyph glyph-name="uni2165" unicode="&#x2165;" 
d="M1819 14q0 -14 -17 -14h-448q-21 0 -21 14t15 19q64 18 108 41q41 21 41 59q0 82 1 294t1 335q0 140 -1 347t-1 286q0 25 -22 46t-48 21q-51 0 -80.5 -29.5t-52.5 -103.5q-345 -1138 -401 -1321q-11 -35 -33 -35q-23 0 -35 37q-219 623 -514 1391q-14 38 -63 57
q-31 14 -98 31q-15 4 -15 16q0 15 15 15h481q16 0 16 -15q0 -16 -18 -18q-62 -10 -95.5 -31t-33.5 -41q0 -1 1 -3t1 -3q49 -145 399 -1118q156 492 305 1034q8 36 8 45q0 39 -32.5 62t-116.5 55q-16 6 -16 18q0 15 16 15h737q17 0 17 -15q0 -13 -17 -16q-63 -14 -104 -35
q-47 -26 -47 -59q0 -79 -1 -286t-1 -347q0 -123 1 -335t1 -294q0 -41 47 -65q20 -11 106 -35q15 -4 15 -19z" />
    <glyph glyph-name="uni2166" unicode="&#x2166;" 
d="M1931 16q0 -16 -18 -16h-807q-8 0 -11.5 2t-4 5t-0.5 9q0 14 14 17q46 8 92 30q57 28 57 70q0 82 1 294t1 335q0 140 -1 347t-1 286q0 27 -18.5 48t-46.5 21q-33 0 -54.5 -34t-37.5 -101q-44 -169 -180 -683.5t-168 -637.5q-10 -35 -31 -35q-25 0 -35 35
q-192 618 -451 1397q-12 38 -42 52t-105 30q-12 2 -12 16q0 17 14 17h446q17 0 17 -15q0 -17 -14 -20q-72 -20 -101 -37t-22 -39q55 -188 187.5 -621.5t150.5 -494.5q161 587 272 1034q6 27 6 49q0 44 -30.5 69t-98.5 40q-16 3 -16 20q0 15 22 15h1008q16 0 16 -15
q0 -13 -12 -16q-72 -22 -84 -27q-31 -14 -47.5 -29t-16.5 -38q0 -79 -1 -286t-1 -347q0 -123 1 -335t1 -294q0 -35 43 -63q38 -26 107 -37q12 -3 12 -17zM1618 762q0 140 -1 347t-1 286q0 40 -41 63q-30 21 -68 21q-36 0 -75 -25q-31 -22 -31 -59q0 -79 -1 -286t-1 -347
q0 -123 1 -335t1 -294q0 -39 43 -70q27 -18 63 -18q48 0 80 29q29 26 29 59q0 82 1 294t1 335z" />
    <glyph glyph-name="uni2167" unicode="&#x2167;" 
d="M1954 16q0 -16 -17 -16h-1081q-18 0 -18 14q0 12 16 17q55 13 100 35q30 14 43 28.5t13 38.5q0 82 1 294t1 335q0 140 -1 347t-1 286q0 21 -13.5 38t-35.5 17q-20 0 -42.5 -32.5t-33.5 -88.5q-68 -342 -269 -1317q-8 -39 -32 -39q-25 0 -35 43q-190 777 -356 1389
q-10 34 -41 49.5t-107 32.5q-12 3 -12 16q0 17 14 17h442q15 0 15 -17q0 -15 -15 -18q-120 -33 -120 -70v-6q37 -160 124.5 -531t127.5 -548q108 512 198 997q4 16 4 47q0 43 -27.5 67t-99.5 46q-16 4 -16 18q0 15 14 15h1243q15 0 15 -17q0 -10 -15 -14q-30 -7 -86 -31
q-57 -24 -57 -63q0 -79 -1 -286t-1 -347q0 -123 1 -335t1 -294q0 -40 41 -65q36 -21 104 -35q15 -3 15 -17zM1651 762q0 140 -1 347t-1 286q0 30 -26.5 52.5t-59.5 22.5h-31q-64 -35 -64 -75q0 -79 -1 -286t-1 -347q0 -123 1 -335t1 -294q0 -37 35 -61q21 -15 53 -15
q36 0 60 17q33 26 33 59q0 82 1 294t1 335zM1325 762q0 140 -1 347t-1 286q0 46 -47 67q-18 6 -39 6q-26 0 -41 -6q-43 -18 -43 -67q0 -79 -1 -286t-1 -347q0 -123 1 -335t1 -294q0 -31 31 -59q20 -17 57 -17q32 0 53 15q29 23 29 61q0 82 1 294t1 335z" />
    <glyph glyph-name="uni2168" unicode="&#x2168;" 
d="M1888 16q0 -16 -14 -16h-395q-18 0 -21 12v4q0 11 17 17q81 16 81 49q0 7 -8 27q-139 309 -276 583q-30 -68 -114.5 -248t-125.5 -278q-10 -27 -10 -43q0 -61 117 -90q18 -4 18 -19q0 -14 -18 -14h-875q-22 0 -22 12q0 17 14 19q55 11 109 41q43 24 43 61q0 82 1 294
t1 335q0 446 -2 622q0 44 -46 66q-61 30 -106 39q-14 2 -14 18q0 13 22 13h895q6 0 11.5 -5t5.5 -10q0 -13 -19 -18q-88 -22 -88 -53q0 -7 4 -15q24 -54 59 -127t89.5 -184t85.5 -176q113 237 178 409q18 47 18 70q0 26 -19.5 42t-68.5 36q-20 7 -20 18q0 13 20 13h352
q21 0 21 -13q0 -15 -16 -18q-86 -24 -124.5 -56.5t-72.5 -101.5q-109 -222 -223 -479q155 -316 377 -739q30 -61 145 -82q14 -3 14 -15zM1229 774q-200 406 -326 645q-14 28 -46 44t-75 16q-221 0 -221 -84q0 -79 -1 -286t-1 -347q0 -123 1 -335t1 -294q0 -42 49 -65
t138 -23q72 0 114 28.5t74 92.5q186 374 293 608z" />
    <glyph glyph-name="uni2169" unicode="&#x2169;" 
d="M1769 16q0 -16 -16 -16h-479q-12 0 -12 16q0 12 16 17q68 12 96.5 22.5t28.5 30.5q0 7 -8 23q-26 43 -58.5 95t-54.5 86.5t-70.5 107t-63 94.5t-77.5 115t-72 106q-165 -250 -321 -498q-25 -42 -25 -72q0 -66 123 -108q17 -7 17 -19q0 -16 -23 -16h-446q-6 0 -11.5 4.5
t-5.5 11.5q0 18 12 21q89 23 138 56t100 104q74 104 399 579q-362 536 -430 629q-7 11 -30.5 29t-44.5 26q-33 13 -76 27q-15 5 -15 18q0 15 19 15h420q14 0 14 -13v-4q0 -11 -18 -16q-57 -13 -80 -23t-23 -24q0 -5 8 -21q97 -160 344 -518q193 297 263 418q26 39 26 74
q0 31 -27.5 53t-88.5 39q-17 3 -17 18q0 7 5.5 12t11.5 5h415q6 0 11.5 -5t5.5 -12q0 -11 -17 -18q-89 -20 -132.5 -50.5t-88.5 -97.5q-51 -76 -171 -266t-148 -233q272 -404 501 -723q23 -35 70 -54t94 -28q12 -3 12 -17z" />
    <glyph glyph-name="Japan1.8061" 
d="M1538 762q0 -171 -30.5 -312t-91.5 -249t-161.5 -168t-232.5 -60q-131 0 -230.5 61t-160 169.5t-91 249t-30.5 309.5q0 130 18 244t57.5 213.5t98.5 171t145 112.5t193 41q131 0 232.5 -62.5t162 -172t91 -247.5t30.5 -300zM1880 111q0 -43 -32 -78t-72 -35t-72.5 35
t-32.5 78q0 48 32 83t73 35t72.5 -34.5t31.5 -83.5zM1378 760q0 335 -97 527t-259 192t-259 -192t-97 -527q0 -344 96 -529.5t260 -185.5t260 185.5t96 529.5z" />
    <glyph glyph-name="uni2488" unicode="&#x2488;" 
d="M1337 12q0 -6 -0.5 -8t-4 -3t-11.5 -1h-578q-18 0 -18 12q0 6 2 9.5t4 5t6 3.5l4 1q54 9 84.5 16t64.5 18t49 27t15 37v1229q0 39 -41 39q-43 0 -141 -43q-1 0 -3 -1t-3 -1q-9 0 -15 7.5t-6 18.5q0 15 15 21q62 22 112.5 43.5t117 53t100.5 46.5q2 2 8 2q16 0 16 -24
v-1391q0 -18 5.5 -32t18 -23.5t24.5 -15.5t34.5 -10.5t37.5 -6.5t43.5 -5t43.5 -5q7 -1 10 -2.5t4.5 -5t1.5 -11.5zM1880 111q0 -43 -32 -78t-72 -35t-72.5 35t-32.5 78q0 48 32 83t73 35t72.5 -34.5t31.5 -83.5z" />
    <glyph glyph-name="uni2489" unicode="&#x2489;" 
d="M1497 340q-47 -156 -65 -313q-6 -27 -23 -27h-903q-14 0 -14 18q0 6 12 54q60 182 194.5 344t300.5 274q81 54 138 107t88 96t48 92.5t21 86t4 87.5q0 144 -82.5 227.5t-214.5 83.5q-140 0 -212 -44t-72 -123q0 -34 26.5 -81t26.5 -81q0 -39 -26 -70t-72 -31
q-60 0 -86.5 42t-26.5 96q0 69 28 133.5t81 117t139.5 84t193.5 31.5q211 0 337 -109t126 -290q0 -82 -15.5 -144t-58.5 -129.5t-127.5 -134.5t-215.5 -139q-156 -92 -270.5 -220t-155.5 -255h118q238 0 369 12q130 13 176 27q96 31 160 131q15 23 29 51q2 4 8 4h6
q4 0 7.5 -2t2.5 -6zM1880 111q0 -43 -32 -78t-72 -35t-72.5 35t-32.5 78q0 48 32 83t73 35t72.5 -34.5t31.5 -83.5z" />
    <glyph glyph-name="uni248A" unicode="&#x248a;" 
d="M1522 418q0 -109 -39 -194.5t-109 -139.5t-163.5 -81.5t-204.5 -27.5q-219 0 -354.5 90t-135.5 222q0 42 21 73t67 31q40 0 64 -19.5t35 -50t19 -68t23.5 -75t41.5 -68t80.5 -50t133.5 -19.5q147 0 254 91t107 253q0 197 -126.5 298t-371.5 103q-25 0 -34 6t-9 25
q0 16 10 22t41 7q98 2 173 18.5t138.5 52t97.5 100.5t34 157q0 139 -95.5 220t-226.5 81q-119 0 -193.5 -35t-74.5 -88q0 -34 18.5 -73.5t18.5 -57.5q0 -46 -26.5 -70.5t-73.5 -24.5q-50 0 -75.5 31.5t-25.5 75.5q0 128 129.5 219.5t313.5 91.5q209 0 332.5 -101t123.5 -261
q0 -156 -95 -252t-237 -109q-38 -3 -38 -6q0 -6 40 -6q93 -1 183.5 -53.5t149.5 -143.5t59 -194zM1880 111q0 -43 -32 -78t-72 -35t-72.5 35t-32.5 78q0 48 32 83t73 35t72.5 -34.5t31.5 -83.5z" />
    <glyph glyph-name="uni248B" unicode="&#x248b;" 
d="M1595 418q0 -29 -4.5 -35t-23.5 -6h-275v-238q0 -42 33 -68t129 -40q7 -1 10 -2.5t4.5 -5t1.5 -11.5q0 -12 -24 -12h-488q-26 0 -26 12q0 11 3 14t13 5q104 20 148.5 45t44.5 63v238h-647q-32 0 -43 6.5t-11 28.5q0 9 1 15t5 13t7 10.5l12 14t14 16.5l729 1028
q9 21 18.5 28t30.5 7q23 0 29 -7t6 -32v-1052h275q20 0 24 -5t4 -30zM1880 111q0 -43 -32 -78t-72 -35t-72.5 35t-32.5 78q0 48 32 83t73 35t72.5 -34.5t31.5 -83.5zM1151 1270q0 3 -3.5 3t-4.5 -3l-565 -817h561q2 612 12 817z" />
    <glyph glyph-name="uni248C" unicode="&#x248c;" 
d="M1540 469q0 -228 -137.5 -361t-382.5 -133q-210 0 -346.5 95t-136.5 221q0 40 21.5 72t64.5 32q40 0 64 -19t34 -50t17 -68t21.5 -74t39.5 -68t78 -50t131 -19q169 0 272.5 105t103.5 294q0 183 -113 303.5t-286 120.5q-110 0 -199.5 -39.5t-142.5 -117.5
q-14 -25 -43 -25q-12 0 -18 4q-13 8 -13 31q0 5 1 15t1 14l86 755q0 13 21 13h684q47 0 84 16q20 8 22 8q7 0 7 -6q0 -8 -2 -14q-13 -42 -33 -142q-2 -10 -8 -10h-703l-61 -534q-4 -13 6 -13q4 0 10 9q38 49 131 83.5t184 34.5q246 0 393.5 -128.5t147.5 -354.5zM1880 111
q0 -43 -32 -78t-72 -35t-72.5 35t-32.5 78q0 48 32 83t73 35t72.5 -34.5t31.5 -83.5z" />
    <glyph glyph-name="uni248D" unicode="&#x248d;" 
d="M1530 451q0 -208 -135.5 -342t-356.5 -134q-116 0 -210.5 38.5t-168 118.5t-113.5 215t-40 317q0 275 60.5 470t188 302.5t314.5 107.5q193 0 317.5 -92t124.5 -201q0 -98 -67 -98q-39 0 -64 18t-38 46.5t-23.5 63.5t-26.5 70t-40 63.5t-71 46.5t-114 18
q-201 0 -304 -183.5t-106 -570.5q43 97 153.5 153t227.5 56q216 0 354 -132t138 -351zM1880 111q0 -43 -32 -78t-72 -35t-72.5 35t-32.5 78q0 48 32 83t73 35t72.5 -34.5t31.5 -83.5zM1368 440q0 190 -99 299t-239 109q-144 0 -255 -99.5t-111 -236.5q0 -113 31.5 -203.5
t84.5 -146.5t120 -85.5t142 -29.5q145 0 235.5 104t90.5 289z" />
    <glyph glyph-name="uni248E" unicode="&#x248e;" 
d="M1556 1509q0 -10 -14 -32q-144 -176 -237.5 -329t-154 -319t-90.5 -336t-46 -401q-4 -57 -15 -76q-24 -41 -104 -41q-98 0 -98 80q0 17 2 25q82 373 245 737.5t351 560.5h-531q-101 0 -165.5 -37t-133.5 -141q-11 -14 -18 -14h-4q-4 2 -4 6q0 6 2 10q10 42 17 76.5
t12 65.5t7 49.5t5.5 51.5t5.5 48q6 27 22 27h920q26 0 26 -11zM1880 111q0 -43 -32 -78t-72 -35t-72.5 35t-32.5 78q0 48 32 83t73 35t72.5 -34.5t31.5 -83.5z" />
    <glyph glyph-name="uni248F" unicode="&#x248f;" 
d="M1548 395q0 -207 -141.5 -313.5t-380.5 -106.5q-152 0 -268.5 44t-187 139t-70.5 231q0 152 95 261.5t282 162.5q-159 56 -239.5 151.5t-80.5 215.5q0 160 128 262t339 102q212 0 339.5 -101.5t127.5 -262.5q0 -121 -86 -219.5t-244 -133.5q181 -56 284 -170t103 -262z
M1880 111q0 -43 -32 -78t-72 -35t-72.5 35t-32.5 78q0 48 32 83t73 35t72.5 -34.5t31.5 -83.5zM1356 1176q0 134 -98 216.5t-244 82.5q-150 0 -233 -78.5t-83 -214.5q0 -97 103.5 -181t267.5 -131q150 36 218.5 112.5t68.5 193.5zM1389 383q0 129 -118.5 239t-303.5 156
q-334 -110 -334 -381q0 -96 56 -176.5t146.5 -126t192.5 -45.5q178 0 269.5 79.5t91.5 254.5z" />
    <glyph glyph-name="uni2490" unicode="&#x2490;" 
d="M1534 856q0 -275 -60.5 -470t-188 -303t-314.5 -108q-193 0 -318 92t-125 201q0 41 16 70t52 29q39 0 64 -18t38 -46.5t23.5 -63.5t26.5 -70t40 -63.5t71 -46.5t114 -18q201 0 303.5 183.5t105.5 570.5q-43 -97 -153.5 -153t-227.5 -56q-216 0 -353.5 132t-137.5 351
q0 208 135 341.5t356 133.5q93 0 171.5 -23.5t146 -75.5t115 -131t74 -195.5t26.5 -262.5zM1880 111q0 -43 -32 -78t-72 -35t-72.5 35t-32.5 78q0 48 32 83t73 35t72.5 -34.5t31.5 -83.5zM1376 1008q0 113 -31.5 203.5t-85 146.5t-120.5 85.5t-142 29.5q-145 0 -235 -104.5
t-90 -289.5q0 -190 99 -298.5t239 -108.5q144 0 255 99.5t111 236.5z" />
    <glyph glyph-name="uni2474" unicode="&#x2474;" 
d="M1278 143q0 -14 -18 -14h-465q-19 0 -19 14t15 17q72 9 127 30q45 17 45 52q0 77 1 257t1 257q0 98 -1 268.5t-1 214.5q0 19 -4.5 26t-18.5 7q-21 0 -158 -35h-4q-6 0 -10 6t-4 12q0 14 10 17q138 49 299 123q2 2 10 2q13 0 13 -17v-4q-6 -83 -6 -620q0 -97 1 -269
t1 -245q0 -35 45 -52q5 -2 14 -5t14 -5q60 -16 99 -20q14 -3 14 -17zM2028 754q0 -151 -30 -290t-83 -249t-111.5 -195t-128.5 -155q-12 -12 -24 -12q-13 0 -13 10q0 4 7 18q38 63 48.5 81t49.5 89.5t56 112.5t47 120.5t44 144t25.5 151.5t11.5 174q0 116 -19.5 230
t-45 195.5t-68.5 173.5t-69.5 139t-68.5 116q-8 12 -11 18q-7 14 -7 19q0 10 13 10q11 0 24 -13q68 -69 128.5 -159t112 -202t82 -249t30.5 -278zM410 -137q0 -10 -13 -10q-12 0 -24 12q-70 70 -128.5 155t-111.5 195t-83 249t-30 290q0 141 30.5 278t82 249t112 202
t128.5 159q13 13 24 13q13 0 13 -10q0 -5 -7 -19q-106 -176 -153 -280q-129 -288 -129 -592q0 -87 11.5 -174t25.5 -151.5t44 -144t47 -120.5t56 -112.5t49.5 -89.5t48.5 -81q7 -14 7 -18z" />
    <glyph glyph-name="uni2475" unicode="&#x2475;" 
d="M1473 416q-37 -163 -50 -256q-5 -21 -18 -21h-4h-813q-27 0 -27 23q0 13 6 31q98 286 408 497q74 51 123.5 90t100 89.5t76 103.5t25.5 108q0 116 -81.5 188t-198.5 72q-119 0 -197 -46.5t-78 -116.5q0 -43 35 -93q13 -24 12.5 -51.5t-24 -50t-61.5 -22.5h-15
q-84 10 -84 110q0 145 119.5 238.5t288.5 93.5q187 0 304.5 -94.5t117.5 -247.5q0 -115 -99.5 -219t-320.5 -228q-132 -74 -227 -173t-127 -201h55q288 0 442 10q134 11 185 41.5t98 130.5q6 12 12 12q1 0 3 -1t3 -1q11 -7 11 -10v-6zM2028 754q0 -151 -30 -290t-83 -249
t-111.5 -195t-128.5 -155q-12 -12 -24 -12q-13 0 -13 10q0 4 7 18q38 63 48.5 81t49.5 89.5t56 112.5t47 120.5t44 144t25.5 151.5t11.5 174q0 116 -19.5 230t-45 195.5t-68.5 173.5t-69.5 139t-68.5 116q-8 12 -11 18q-7 14 -7 19q0 10 13 10q11 0 24 -13
q68 -69 128.5 -159t112 -202t82 -249t30.5 -278zM410 -137q0 -10 -13 -10q-12 0 -24 12q-70 70 -128.5 155t-111.5 195t-83 249t-30 290q0 141 30.5 278t82 249t112 202t128.5 159q13 13 24 13q13 0 13 -10q0 -5 -7 -19q-106 -176 -153 -280q-129 -288 -129 -592
q0 -87 11.5 -174t25.5 -151.5t44 -144t47 -120.5t56 -112.5t49.5 -89.5t48.5 -81q7 -14 7 -18z" />
    <glyph glyph-name="uni2476" unicode="&#x2476;" 
d="M1456 481q0 -118 -61 -201.5t-161 -122t-230 -38.5q-178 0 -297.5 76t-137.5 180q-7 41 13.5 77.5t60.5 36.5q92 0 92 -90q0 -95 61 -149.5t197 -69.5q4 0 13.5 -1t13.5 -1q113 0 210 81t97 196q0 4 -1 11t-1 11q-14 158 -132.5 233.5t-309.5 75.5h-9q-20 0 -27 5.5
t-7 19.5q0 15 8.5 20t32.5 5q81 1 150.5 15.5t127 43.5t90.5 80t33 119v22q-9 112 -82 171t-201 59q-105 0 -173 -39.5t-68 -96.5q0 -22 16 -51q10 -17 10 -35q0 -30 -24.5 -52.5t-59.5 -22.5q-16 0 -24 2q-28 7 -41.5 30.5t-13.5 53.5q0 105 114.5 186.5t268.5 81.5
q180 0 291.5 -81.5t111.5 -207.5q0 -67 -27.5 -123.5t-72.5 -93t-101 -57.5t-114 -23q-25 0 -25 -4t27 -4q86 0 170 -44.5t138 -121.5t54 -162zM2028 754q0 -151 -30 -290t-83 -249t-111.5 -195t-128.5 -155q-12 -12 -24 -12q-13 0 -13 10q0 4 7 18q38 63 48.5 81t49.5 89.5
t56 112.5t47 120.5t44 144t25.5 151.5t11.5 174q0 116 -19.5 230t-45 195.5t-68.5 173.5t-69.5 139t-68.5 116q-8 12 -11 18q-7 14 -7 19q0 10 13 10q11 0 24 -13q68 -69 128.5 -159t112 -202t82 -249t30.5 -278zM410 -137q0 -10 -13 -10q-12 0 -24 12q-70 70 -128.5 155
t-111.5 195t-83 249t-30 290q0 141 30.5 278t82 249t112 202t128.5 159q13 13 24 13q13 0 13 -10q0 -5 -7 -19q-106 -176 -153 -280q-129 -288 -129 -592q0 -87 11.5 -174t25.5 -151.5t44 -144t47 -120.5t56 -112.5t49.5 -89.5t48.5 -81q7 -14 7 -18z" />
    <glyph glyph-name="uni2477" unicode="&#x2477;" 
d="M1468 504q0 -22 -5.5 -26.5t-24.5 -4.5h-262v-229q0 -20 11 -31.5t34 -19.5q20 -8 26 -11q55 -16 80 -20q14 -3 14 -17t-18 -14h-418q-18 0 -18 14t14 17q46 8 107 31q23 8 34 19.5t11 31.5v229h-555q-17 0 -22 5.5t-5 21.5q0 19 12 37q321 418 639 849q11 15 23 15
q8 0 12 -2q19 -7 19 -27v-835h262q18 0 24 -5.5t6 -27.5zM2028 754q0 -151 -30 -290t-83 -249t-111.5 -195t-128.5 -155q-12 -12 -24 -12q-13 0 -13 10q0 4 7 18q38 63 48.5 81t49.5 89.5t56 112.5t47 120.5t44 144t25.5 151.5t11.5 174q0 116 -19.5 230t-45 195.5
t-68.5 173.5t-69.5 139t-68.5 116q-8 12 -11 18q-7 14 -7 19q0 10 13 10q11 0 24 -13q68 -69 128.5 -159t112 -202t82 -249t30.5 -278zM410 -137q0 -10 -13 -10q-12 0 -24 12q-70 70 -128.5 155t-111.5 195t-83 249t-30 290q0 141 30.5 278t82 249t112 202t128.5 159
q13 13 24 13q13 0 13 -10q0 -5 -7 -19q-106 -176 -153 -280q-129 -288 -129 -592q0 -87 11.5 -174t25.5 -151.5t44 -144t47 -120.5t56 -112.5t49.5 -89.5t48.5 -81q7 -14 7 -18zM1063 1174l-8 2q-17 -22 -100 -131.5t-199.5 -263t-186.5 -244.5h484q2 504 10 637z" />
    <glyph glyph-name="uni2478" unicode="&#x2478;" 
d="M2028 754q0 -151 -30 -290t-83 -249t-111.5 -195t-128.5 -155q-12 -12 -24 -12q-13 0 -13 10q0 4 7 18q38 63 48.5 81t49.5 89.5t56 112.5t47 120.5t44 144t25.5 151.5t11.5 174q0 116 -19.5 230t-45 195.5t-68.5 173.5t-69.5 139t-68.5 116q-8 12 -11 18q-7 14 -7 19
q0 10 13 10q11 0 24 -13q68 -69 128.5 -159t112 -202t82 -249t30.5 -278zM410 -137q0 -10 -13 -10q-12 0 -24 12q-70 70 -128.5 155t-111.5 195t-83 249t-30 290q0 141 30.5 278t82 249t112 202t128.5 159q13 13 24 13q13 0 13 -10q0 -5 -7 -19q-106 -176 -153 -280
q-129 -288 -129 -592q0 -87 11.5 -174t25.5 -151.5t44 -144t47 -120.5t56 -112.5t49.5 -89.5t48.5 -81q7 -14 7 -18zM1464 506q0 -183 -125.5 -293.5t-326.5 -110.5q-173 0 -288 70.5t-134 177.5q0 2 -1 8t-1 9q0 32 17.5 57t51.5 25q86 0 86 -84v-7v-2q0 -89 78 -145.5
t185 -56.5q136 0 231.5 87t95.5 232v8q-4 154 -107.5 251t-248.5 97q-89 0 -164.5 -34.5t-120.5 -98.5q-16 -20 -37 -20q-8 0 -14 2q-18 5 -18 27q0 12 2 20q54 295 100 621q4 20 16 20h564q55 0 86 27q6 6 10 6q1 0 3 -1t3 -1q2 -2 2 -8v-5q-22 -85 -31 -127
q-4 -12 -16 -12h-586q-33 -191 -76 -454v-5q0 -8 7 -8q2 0 8 6q28 34 105.5 69.5t137.5 39.5q16 2 50 2q197 0 326.5 -107t129.5 -282z" />
    <glyph glyph-name="uni2479" unicode="&#x2479;" 
d="M1473 506q0 -162 -118.5 -275.5t-320.5 -113.5q-94 0 -176.5 32t-150 96.5t-107 175.5t-39.5 257q0 336 130 527.5t364 195.5h4q143 0 255.5 -80t117.5 -180v-4q0 -30 -19 -52.5t-49 -23.5h-4q-39 0 -60.5 21t-21.5 57v12v16q0 73 -65.5 123.5t-161.5 50.5
q-81 0 -147 -33.5t-117.5 -103t-80 -188.5t-28.5 -279v-8q41 85 142.5 137t211.5 54h8q183 0 308 -117t125 -297zM2028 754q0 -151 -30 -290t-83 -249t-111.5 -195t-128.5 -155q-12 -12 -24 -12q-13 0 -13 10q0 4 7 18q38 63 48.5 81t49.5 89.5t56 112.5t47 120.5t44 144
t25.5 151.5t11.5 174q0 116 -19.5 230t-45 195.5t-68.5 173.5t-69.5 139t-68.5 116q-8 12 -11 18q-7 14 -7 19q0 10 13 10q11 0 24 -13q68 -69 128.5 -159t112 -202t82 -249t30.5 -278zM410 -137q0 -10 -13 -10q-12 0 -24 12q-70 70 -128.5 155t-111.5 195t-83 249t-30 290
q0 141 30.5 278t82 249t112 202t128.5 159q13 13 24 13q13 0 13 -10q0 -5 -7 -19q-106 -176 -153 -280q-129 -288 -129 -592q0 -87 11.5 -174t25.5 -151.5t44 -144t47 -120.5t56 -112.5t49.5 -89.5t48.5 -81q7 -14 7 -18zM1346 500v8q-3 153 -94 246.5t-218 93.5h-8
q-133 -3 -232.5 -87t-99.5 -216v-10q4 -156 107 -258.5t235 -102.5q129 0 219.5 86.5t90.5 239.5z" />
    <glyph glyph-name="uni247A" unicode="&#x247a;" 
d="M2028 754q0 -151 -30 -290t-83 -249t-111.5 -195t-128.5 -155q-12 -12 -24 -12q-13 0 -13 10q0 4 7 18q38 63 48.5 81t49.5 89.5t56 112.5t47 120.5t44 144t25.5 151.5t11.5 174q0 116 -19.5 230t-45 195.5t-68.5 173.5t-69.5 139t-68.5 116q-8 12 -11 18q-7 14 -7 19
q0 10 13 10q11 0 24 -13q68 -69 128.5 -159t112 -202t82 -249t30.5 -278zM410 -137q0 -10 -13 -10q-12 0 -24 12q-70 70 -128.5 155t-111.5 195t-83 249t-30 290q0 141 30.5 278t82 249t112 202t128.5 159q13 13 24 13q13 0 13 -10q0 -5 -7 -19q-106 -176 -153 -280
q-129 -288 -129 -592q0 -87 11.5 -174t25.5 -151.5t44 -144t47 -120.5t56 -112.5t49.5 -89.5t48.5 -81q7 -14 7 -18zM1497 1307q0 -10 -10 -23q-233 -313 -340 -562t-129 -575q-4 -52 -14 -67q-20 -29 -84 -29q-82 0 -82 62q0 10 4 26q54 257 211.5 577.5t318.5 481.5h-506
q-110 0 -148 -24.5t-90 -109.5q-5 -7 -7 -11q-9 -9 -15 -9h-4q-8 4 -8 9v4q27 121 43 239q3 21 20 21h822q18 0 18 -10z" />
    <glyph glyph-name="uni247B" unicode="&#x247b;" 
d="M1483 457q0 -110 -63 -189.5t-164.5 -118t-229.5 -38.5q-124 0 -225.5 38t-165.5 119t-64 193t89.5 202.5t240.5 135.5q-276 125 -276 307q0 130 112 213.5t287 83.5q173 0 289.5 -85t116.5 -212q0 -94 -80.5 -171t-210.5 -118q344 -129 344 -360zM2028 754
q0 -151 -30 -290t-83 -249t-111.5 -195t-128.5 -155q-12 -12 -24 -12q-13 0 -13 10q0 4 7 18q38 63 48.5 81t49.5 89.5t56 112.5t47 120.5t44 144t25.5 151.5t11.5 174q0 116 -19.5 230t-45 195.5t-68.5 173.5t-69.5 139t-68.5 116q-8 12 -11 18q-7 14 -7 19q0 10 13 10
q11 0 24 -13q68 -69 128.5 -159t112 -202t82 -249t30.5 -278zM410 -137q0 -10 -13 -10q-12 0 -24 12q-70 70 -128.5 155t-111.5 195t-83 249t-30 290q0 141 30.5 278t82 249t112 202t128.5 159q13 13 24 13q13 0 13 -10q0 -5 -7 -19q-106 -176 -153 -280
q-129 -288 -129 -592q0 -87 11.5 -174t25.5 -151.5t44 -144t47 -120.5t56 -112.5t49.5 -89.5t48.5 -81q7 -14 7 -18zM1313 1108q0 105 -90 173.5t-211 68.5q-124 0 -199.5 -65.5t-75.5 -178.5q0 -146 332 -264q244 70 244 266zM1343 446v9q-3 213 -372 321
q-128 -39 -210.5 -120t-82.5 -191v-4q1 -75 53 -143.5t131.5 -108t159.5 -39.5q321 0 321 276z" />
    <glyph glyph-name="uni247C" unicode="&#x247c;" 
d="M2028 754q0 -151 -30 -290t-83 -249t-111.5 -195t-128.5 -155q-12 -12 -24 -12q-13 0 -13 10q0 4 7 18q38 63 48.5 81t49.5 89.5t56 112.5t47 120.5t44 144t25.5 151.5t11.5 174q0 116 -19.5 230t-45 195.5t-68.5 173.5t-69.5 139t-68.5 116q-8 12 -11 18q-7 14 -7 19
q0 10 13 10q11 0 24 -13q68 -69 128.5 -159t112 -202t82 -249t30.5 -278zM410 -137q0 -10 -13 -10q-12 0 -24 12q-70 70 -128.5 155t-111.5 195t-83 249t-30 290q0 141 30.5 278t82 249t112 202t128.5 159q13 13 24 13q13 0 13 -10q0 -5 -7 -19q-106 -176 -153 -280
q-129 -288 -129 -592q0 -87 11.5 -174t25.5 -151.5t44 -144t47 -120.5t56 -112.5t49.5 -89.5t48.5 -81q7 -14 7 -18zM1499 813q0 -354 -127 -530.5t-366 -176.5q-135 0 -254.5 83.5t-130.5 177.5v10q0 33 18 55.5t55 22.5q41 0 60.5 -24.5t19.5 -80.5q0 -76 72 -130t164 -54
q168 0 268 148t104 466q-57 -84 -157 -132t-203 -48q-184 0 -309 107.5t-125 285.5q0 79 32.5 153t89 130t139 89.5t177.5 33.5q104 0 188.5 -34.5t149 -103.5t100 -183t35.5 -265zM1366 954v11q-3 162 -97.5 269t-244.5 107q-122 0 -215.5 -93t-93.5 -240v-9
q3 -159 94.5 -245t224.5 -88h8q130 0 227 80t97 208z" />
    <glyph glyph-name="uni247D" unicode="&#x247d;" 
d="M860 145q0 -14 -18 -14h-410q-18 0 -18 14t14 17q47 9 102 31q45 18 45 51q0 77 1.5 257t1.5 257q0 98 -1.5 268.5t-1.5 214.5q0 25 -12 28q-17 5 -137 -27h-1l-1 -1h-2h-4q-6 0 -10.5 6.5t-4.5 12.5q0 12 11 16q114 45 266 121q2 2 10 2q12 0 12 -17v-4q-6 -82 -6 -620
q0 -97 1 -269t1 -245q0 -33 45 -51q47 -20 103 -31q14 -3 14 -17zM2028 754q0 -151 -30 -290t-83 -249t-111.5 -195t-128.5 -155q-12 -12 -24 -12q-13 0 -13 10q0 4 7 18q38 63 48.5 81t49.5 89.5t56 112.5t47 120.5t44 144t25.5 151.5t11.5 174q0 116 -19.5 230t-45 195.5
t-68.5 173.5t-69.5 139t-68.5 116q-8 12 -11 18q-7 14 -7 19q0 10 13 10q11 0 24 -13q68 -69 128.5 -159t112 -202t82 -249t30.5 -278zM410 -137q0 -10 -13 -10q-12 0 -24 12q-70 70 -128.5 155t-111.5 195t-83 249t-30 290q0 141 30.5 278t82 249t112 202t128.5 159
q13 13 24 13q13 0 13 -10q0 -5 -7 -19q-106 -176 -153 -280q-129 -288 -129 -592q0 -87 11.5 -174t25.5 -151.5t44 -144t47 -120.5t56 -112.5t49.5 -89.5t48.5 -81q7 -14 7 -18zM1649 756q0 -645 -344 -645q-169 0 -254.5 162.5t-85.5 482.5q0 317 85.5 478t254.5 161
q170 0 257 -163t87 -476zM1524 754q0 166 -15 282t-45 182t-68.5 94.5t-90.5 28.5q-51 0 -89 -28.5t-67 -94.5t-44 -182t-15 -282q0 -168 15 -284.5t44 -181.5t66.5 -92.5t89.5 -27.5t90.5 27.5t68.5 92.5t45 181.5t15 284.5z" />
    <glyph glyph-name="uni247E" unicode="&#x247e;" 
d="M1585 143q0 -14 -18 -14h-424q-19 0 -19 14t15 17q45 7 106 30q45 17 45 52q0 77 1 257t1 257q0 98 -1 268.5t-1 214.5q0 19 -4 26t-18 7q-21 0 -158 -35h-4q-6 0 -10 6t-4 12q0 14 10 17q138 49 299 123q2 2 10 2q12 0 12 -17v-4q-6 -83 -6 -620q0 -97 1 -269t1 -245
q0 -35 45 -52q50 -19 107 -30q14 -3 14 -17zM897 143q0 -14 -18 -14h-424q-19 0 -19 14t15 17q45 7 106 30q45 17 45 52q0 77 1 257t1 257q0 98 -1 268.5t-1 214.5q0 19 -4 26t-18 7q-21 0 -158 -35h-4q-6 0 -10.5 6t-4.5 12q0 13 11 17q138 49 299 123q2 2 10 2
q12 0 12 -17v-4q-6 -83 -6 -620q0 -97 1 -269t1 -245q0 -35 45 -52q50 -19 107 -30q14 -3 14 -17zM2028 754q0 -151 -30 -290t-83 -249t-111.5 -195t-128.5 -155q-12 -12 -24 -12q-13 0 -13 10q0 4 7 18q38 63 48.5 81t49.5 89.5t56 112.5t47 120.5t44 144t25.5 151.5
t11.5 174q0 116 -19.5 230t-45 195.5t-68.5 173.5t-69.5 139t-68.5 116q-8 12 -11 18q-7 14 -7 19q0 10 13 10q11 0 24 -13q68 -69 128.5 -159t112 -202t82 -249t30.5 -278zM410 -137q0 -10 -13 -10q-12 0 -24 12q-70 70 -128.5 155t-111.5 195t-83 249t-30 290
q0 141 30.5 278t82 249t112 202t128.5 159q13 13 24 13q13 0 13 -10q0 -5 -7 -19q-106 -176 -153 -280q-129 -288 -129 -592q0 -87 11.5 -174t25.5 -151.5t44 -144t47 -120.5t56 -112.5t49.5 -89.5t48.5 -81q7 -14 7 -18z" />
    <glyph glyph-name="uni247F" unicode="&#x247f;" 
d="M860 145q0 -14 -18 -14h-410q-18 0 -18 14t14 17q47 9 102 31q45 18 45 51q0 77 1.5 257t1.5 257q0 98 -1.5 268.5t-1.5 214.5q0 25 -12 28q-17 5 -137 -27h-1l-1 -1h-2h-4q-6 0 -10.5 6.5t-4.5 12.5q0 12 11 16q114 45 266 121q2 2 10 2q12 0 12 -17v-4q-6 -82 -6 -620
q0 -97 1 -269t1 -245q0 -33 45 -51q47 -20 103 -31q14 -3 14 -17zM1616 408q-36 -151 -47 -256q-3 -21 -17 -21h-577q-35 0 -35 23q0 8 2 14q42 171 124 297.5t214 230.5q106 84 145 180t39 205q0 258 -184 258q-91 0 -142 -36.5t-51 -96.5q0 -59 48 -119q14 -20 14 -43
q0 -32 -25.5 -57.5t-58.5 -25.5q-9 0 -25 4q-65 20 -65 110q0 138 78 228t233 90q138 0 223.5 -89t85.5 -235q0 -90 -20.5 -156.5t-83.5 -140t-178 -149.5q-213 -145 -277 -394q152 0 295 11q51 4 84 11t57.5 16.5t45 31.5t35.5 44.5t40 66.5q5 10 11 10h4q8 -4 8 -8v-4z
M2028 754q0 -151 -30 -290t-83 -249t-111.5 -195t-128.5 -155q-12 -12 -24 -12q-13 0 -13 10q0 4 7 18q38 63 48.5 81t49.5 89.5t56 112.5t47 120.5t44 144t25.5 151.5t11.5 174q0 116 -19.5 230t-45 195.5t-68.5 173.5t-69.5 139t-68.5 116q-8 12 -11 18q-7 14 -7 19
q0 10 13 10q11 0 24 -13q68 -69 128.5 -159t112 -202t82 -249t30.5 -278zM410 -137q0 -10 -13 -10q-12 0 -24 12q-70 70 -128.5 155t-111.5 195t-83 249t-30 290q0 141 30.5 278t82 249t112 202t128.5 159q13 13 24 13q13 0 13 -10q0 -5 -7 -19q-106 -176 -153 -280
q-129 -288 -129 -592q0 -87 11.5 -174t25.5 -151.5t44 -144t47 -120.5t56 -112.5t49.5 -89.5t48.5 -81q7 -14 7 -18z" />
    <glyph glyph-name="uni2480" unicode="&#x2480;" 
d="M860 145q0 -14 -18 -14h-410q-18 0 -18 14t14 17q47 9 102 31q45 18 45 51q0 77 1.5 257t1.5 257q0 98 -1.5 268.5t-1.5 214.5q0 25 -12 28q-17 5 -137 -27h-1l-1 -1h-2h-4q-6 0 -10.5 6.5t-4.5 12.5q0 12 11 16q114 45 266 121q2 2 10 2q12 0 12 -17v-4q-6 -82 -6 -620
q0 -97 1 -269t1 -245q0 -33 45 -51q47 -20 103 -31q14 -3 14 -17zM2028 754q0 -151 -30 -290t-83 -249t-111.5 -195t-128.5 -155q-12 -12 -24 -12q-13 0 -13 10q0 4 7 18q38 63 48.5 81t49.5 89.5t56 112.5t47 120.5t44 144t25.5 151.5t11.5 174q0 116 -19.5 230t-45 195.5
t-68.5 173.5t-69.5 139t-68.5 116q-8 12 -11 18q-7 14 -7 19q0 10 13 10q11 0 24 -13q68 -69 128.5 -159t112 -202t82 -249t30.5 -278zM1626 475q0 -180 -90 -271t-264 -91q-86 0 -150.5 20.5t-101.5 56t-55.5 76t-22.5 88.5v11q0 39 20 66.5t56 27.5q38 0 60 -24.5
t22 -69.5q0 -43 2 -67t10 -49.5t25 -39t45.5 -24t72.5 -15.5q4 0 12.5 -1t12.5 -1q96 0 157.5 75t61.5 193q0 29 -2 43q-15 154 -104.5 226.5t-253.5 74.5q-18 0 -24.5 5t-6.5 18q0 9 5 14t10 5.5t16 0.5q159 2 250.5 65t91.5 195v27q-8 108 -61.5 168.5t-153.5 60.5
q-85 0 -128.5 -27t-43.5 -69q0 -33 24 -67q12 -15 12 -37q0 -31 -23 -56.5t-58 -25.5q-9 0 -25 4q-57 16 -57 84q0 108 81.5 180t223.5 72q153 0 240 -80.5t87 -208.5q0 -135 -72 -214.5t-179 -82.5q-28 -1 -28 -5.5t28 -4.5q108 0 193 -97.5t85 -228.5zM410 -137
q0 -10 -13 -10q-12 0 -24 12q-70 70 -128.5 155t-111.5 195t-83 249t-30 290q0 141 30.5 278t82 249t112 202t128.5 159q13 13 24 13q13 0 13 -10q0 -5 -7 -19q-106 -176 -153 -280q-129 -288 -129 -592q0 -87 11.5 -174t25.5 -151.5t44 -144t47 -120.5t56 -112.5
t49.5 -89.5t48.5 -81q7 -14 7 -18z" />
    <glyph glyph-name="uni2481" unicode="&#x2481;" 
d="M1636 504q0 -22 -5.5 -26.5t-24.5 -4.5h-140v-229q0 -33 45 -51q50 -22 86 -31q15 -3 15 -17t-19 -14h-379q-18 0 -18 14t14 17q38 9 97 31q23 8 34 19.5t11 31.5v229h-420q-17 0 -22 5.5t-5 21.5q0 18 13 37q356 607 495 849q12 18 35 13q18 -5 18 -27v-837h140
q19 0 24.5 -4.5t5.5 -26.5zM860 145q0 -14 -18 -14h-410q-18 0 -18 14t14 17q47 9 102 31q45 18 45 51q0 77 1.5 257t1.5 257q0 98 -1.5 268.5t-1.5 214.5q0 25 -12 28q-17 5 -137 -27h-1l-1 -1h-2h-4q-6 0 -10.5 6.5t-4.5 12.5q0 12 11 16q114 45 266 121q2 2 10 2
q12 0 12 -17v-4q-6 -82 -6 -620q0 -97 1 -269t1 -245q0 -33 45 -51q47 -20 103 -31q14 -3 14 -17zM2028 754q0 -151 -30 -290t-83 -249t-111.5 -195t-128.5 -155q-12 -12 -24 -12q-13 0 -13 10q0 4 7 18q38 63 48.5 81t49.5 89.5t56 112.5t47 120.5t44 144t25.5 151.5
t11.5 174q0 116 -19.5 230t-45 195.5t-68.5 173.5t-69.5 139t-68.5 116q-8 12 -11 18q-7 14 -7 19q0 10 13 10q11 0 24 -13q68 -69 128.5 -159t112 -202t82 -249t30.5 -278zM410 -137q0 -10 -13 -10q-12 0 -24 12q-70 70 -128.5 155t-111.5 195t-83 249t-30 290
q0 141 30.5 278t82 249t112 202t128.5 159q13 13 24 13q13 0 13 -10q0 -5 -7 -19q-106 -176 -153 -280q-129 -288 -129 -592q0 -87 11.5 -174t25.5 -151.5t44 -144t47 -120.5t56 -112.5t49.5 -89.5t48.5 -81q7 -14 7 -18zM1362 1157l-8 2q-103 -179 -361 -624h359
q2 489 10 622z" />
    <glyph glyph-name="uni2482" unicode="&#x2482;" 
d="M860 145q0 -14 -18 -14h-410q-18 0 -18 14t14 17q47 9 102 31q45 18 45 51q0 77 1.5 257t1.5 257q0 98 -1.5 268.5t-1.5 214.5q0 25 -12 28q-17 5 -137 -27h-1l-1 -1h-2h-4q-6 0 -10.5 6.5t-4.5 12.5q0 12 11 16q114 45 266 121q2 2 10 2q12 0 12 -17v-4q-6 -82 -6 -620
q0 -97 1 -269t1 -245q0 -33 45 -51q47 -20 103 -31q14 -3 14 -17zM2028 754q0 -151 -30 -290t-83 -249t-111.5 -195t-128.5 -155q-12 -12 -24 -12q-13 0 -13 10q0 4 7 18q38 63 48.5 81t49.5 89.5t56 112.5t47 120.5t44 144t25.5 151.5t11.5 174q0 116 -19.5 230t-45 195.5
t-68.5 173.5t-69.5 139t-68.5 116q-8 12 -11 18q-7 14 -7 19q0 10 13 10q11 0 24 -13q68 -69 128.5 -159t112 -202t82 -249t30.5 -278zM410 -137q0 -10 -13 -10q-12 0 -24 12q-70 70 -128.5 155t-111.5 195t-83 249t-30 290q0 141 30.5 278t82 249t112 202t128.5 159
q13 13 24 13q13 0 13 -10q0 -5 -7 -19q-106 -176 -153 -280q-129 -288 -129 -592q0 -87 11.5 -174t25.5 -151.5t44 -144t47 -120.5t56 -112.5t49.5 -89.5t48.5 -81q7 -14 7 -18zM1624 508q0 -194 -87.5 -303t-276.5 -109q-77 0 -139.5 25t-99.5 64t-57 82t-22 83v8
q0 91 74 91h4q33 0 53.5 -22.5t20.5 -64.5v-10v-16q0 -76 35.5 -128t121.5 -52q122 0 186 80t64 227v20q-11 344 -256 344q-66 0 -121 -37t-92 -96q-14 -20 -24 -20q-5 0 -17 4q-10 5 -10 35v20q22 323 39 621q0 6 5 10t11 4h420q57 0 88 27q8 8 12 8h5q9 -3 6 -12
q-18 -67 -27 -129q-3 -13 -18 -13h-447q-22 -343 -28 -454q0 -12 3.5 -12t12.5 12q25 34 75 65.5t97 34.5h27q169 0 265.5 -106t96.5 -281z" />
    <glyph glyph-name="uni2483" unicode="&#x2483;" 
d="M860 145q0 -14 -18 -14h-410q-18 0 -18 14t14 17q47 9 102 31q45 18 45 51q0 77 1.5 257t1.5 257q0 98 -1.5 268.5t-1.5 214.5q0 25 -12 28q-17 5 -137 -27h-1l-1 -1h-2h-4q-6 0 -10.5 6.5t-4.5 12.5q0 12 11 16q114 45 266 121q2 2 10 2q12 0 12 -17v-4q-6 -82 -6 -620
q0 -97 1 -269t1 -245q0 -33 45 -51q47 -20 103 -31q14 -3 14 -17zM1632 502q0 -173 -82.5 -282t-244.5 -109q-176 0 -266.5 136.5t-90.5 432.5q0 139 10 245.5t35.5 199t67.5 152t107.5 93t154.5 33.5q118 0 192 -73.5t74 -178.5q0 -32 -19 -57t-57 -25q-67 0 -67 74v16
q2 14 2 39q0 150 -135 150q-143 0 -198.5 -139.5t-57.5 -473.5q80 166 246 166q161 0 245 -106.5t84 -292.5zM2028 754q0 -151 -30 -290t-83 -249t-111.5 -195t-128.5 -155q-12 -12 -24 -12q-13 0 -13 10q0 4 7 18q38 63 48.5 81t49.5 89.5t56 112.5t47 120.5t44 144
t25.5 151.5t11.5 174q0 116 -19.5 230t-45 195.5t-68.5 173.5t-69.5 139t-68.5 116q-8 12 -11 18q-7 14 -7 19q0 10 13 10q11 0 24 -13q68 -69 128.5 -159t112 -202t82 -249t30.5 -278zM410 -137q0 -10 -13 -10q-12 0 -24 12q-70 70 -128.5 155t-111.5 195t-83 249t-30 290
q0 141 30.5 278t82 249t112 202t128.5 159q13 13 24 13q13 0 13 -10q0 -5 -7 -19q-106 -176 -153 -280q-129 -288 -129 -592q0 -87 11.5 -174t25.5 -151.5t44 -144t47 -120.5t56 -112.5t49.5 -89.5t48.5 -81q7 -14 7 -18zM1516 500q-1 162 -63 245.5t-161 83.5
q-111 0 -169 -78.5t-58 -215.5q6 -173 68.5 -267t169.5 -94q108 0 160.5 80.5t52.5 245.5z" />
    <glyph glyph-name="uni2484" unicode="&#x2484;" 
d="M860 145q0 -14 -18 -14h-410q-18 0 -18 14t14 17q47 9 102 31q45 18 45 51q0 77 1.5 257t1.5 257q0 98 -1.5 268.5t-1.5 214.5q0 25 -12 28q-17 5 -137 -27h-1l-1 -1h-2h-4q-6 0 -10.5 6.5t-4.5 12.5q0 12 11 16q114 45 266 121q2 2 10 2q12 0 12 -17v-4q-6 -82 -6 -620
q0 -97 1 -269t1 -245q0 -33 45 -51q47 -20 103 -31q14 -3 14 -17zM2028 754q0 -151 -30 -290t-83 -249t-111.5 -195t-128.5 -155q-12 -12 -24 -12q-13 0 -13 10q0 4 7 18q38 63 48.5 81t49.5 89.5t56 112.5t47 120.5t44 144t25.5 151.5t11.5 174q0 116 -19.5 230t-45 195.5
t-68.5 173.5t-69.5 139t-68.5 116q-8 12 -11 18q-7 14 -7 19q0 10 13 10q11 0 24 -13q68 -69 128.5 -159t112 -202t82 -249t30.5 -278zM410 -137q0 -10 -13 -10q-12 0 -24 12q-70 70 -128.5 155t-111.5 195t-83 249t-30 290q0 141 30.5 278t82 249t112 202t128.5 159
q13 13 24 13q13 0 13 -10q0 -5 -7 -19q-106 -176 -153 -280q-129 -288 -129 -592q0 -87 11.5 -174t25.5 -151.5t44 -144t47 -120.5t56 -112.5t49.5 -89.5t48.5 -81q7 -14 7 -18zM1636 1331q-188 -252 -259.5 -486.5t-90.5 -649.5q0 -2 -0.5 -15.5t-1 -16t-1.5 -14
t-3.5 -14.5t-6.5 -11.5t-10 -11t-14 -7t-19.5 -6t-25.5 -1.5q-41 0 -57.5 14.5t-16.5 43.5q0 15 3 30q42 319 142.5 598t246.5 461h-320q-47 0 -79 -5.5t-53.5 -13.5t-39 -28.5t-28 -39t-27.5 -56.5q-7 -15 -19 -15q-10 0 -10 13v4q27 148 37 239q1 14 6.5 17.5t18.5 3.5
h616q20 0 22.5 -7t-10.5 -26z" />
    <glyph glyph-name="uni2485" unicode="&#x2485;" 
d="M860 145q0 -14 -18 -14h-410q-18 0 -18 14t14 17q47 9 102 31q45 18 45 51q0 77 1.5 257t1.5 257q0 98 -1.5 268.5t-1.5 214.5q0 25 -12 28q-17 5 -137 -27h-1l-1 -1h-2h-4q-6 0 -10.5 6.5t-4.5 12.5q0 12 11 16q114 45 266 121q2 2 10 2q12 0 12 -17v-4q-6 -82 -6 -620
q0 -97 1 -269t1 -245q0 -33 45 -51q47 -20 103 -31q14 -3 14 -17zM2028 754q0 -151 -30 -290t-83 -249t-111.5 -195t-128.5 -155q-12 -12 -24 -12q-13 0 -13 10q0 4 7 18q38 63 48.5 81t49.5 89.5t56 112.5t47 120.5t44 144t25.5 151.5t11.5 174q0 116 -19.5 230t-45 195.5
t-68.5 173.5t-69.5 139t-68.5 116q-8 12 -11 18q-7 14 -7 19q0 10 13 10q11 0 24 -13q68 -69 128.5 -159t112 -202t82 -249t30.5 -278zM410 -137q0 -10 -13 -10q-12 0 -24 12q-70 70 -128.5 155t-111.5 195t-83 249t-30 290q0 141 30.5 278t82 249t112 202t128.5 159
q13 13 24 13q13 0 13 -10q0 -5 -7 -19q-106 -176 -153 -280q-129 -288 -129 -592q0 -87 11.5 -174t25.5 -151.5t44 -144t47 -120.5t56 -112.5t49.5 -89.5t48.5 -81q7 -14 7 -18zM1622 451q0 -173 -90 -260t-250 -87q-163 0 -254.5 88.5t-91.5 253.5q0 234 252 349
q-114 65 -164.5 131.5t-50.5 169.5q0 131 78.5 215t224.5 84q147 0 229 -82t82 -215q0 -100 -52.5 -164t-172.5 -121q260 -130 260 -362zM1483 1098q0 107 -58.5 175t-152.5 68t-144.5 -61t-50.5 -162v-22q6 -77 61 -137t173 -115q172 88 172 254zM1503 440q0 100 -61 174
t-203 146q-100 -48 -145 -118.5t-45 -188.5q0 -123 63 -205t170 -82q111 0 166 70.5t55 203.5z" />
    <glyph glyph-name="uni2486" unicode="&#x2486;" 
d="M860 145q0 -14 -18 -14h-410q-18 0 -18 14t14 17q47 9 102 31q45 18 45 51q0 77 1.5 257t1.5 257q0 98 -1.5 268.5t-1.5 214.5q0 25 -12 28q-17 5 -137 -27h-1l-1 -1h-2h-4q-6 0 -10.5 6.5t-4.5 12.5q0 12 11 16q114 45 266 121q2 2 10 2q12 0 12 -17v-4q-6 -82 -6 -620
q0 -97 1 -269t1 -245q0 -33 45 -51q47 -20 103 -31q14 -3 14 -17zM2028 754q0 -151 -30 -290t-83 -249t-111.5 -195t-128.5 -155q-12 -12 -24 -12q-13 0 -13 10q0 4 7 18q38 63 48.5 81t49.5 89.5t56 112.5t47 120.5t44 144t25.5 151.5t11.5 174q0 116 -19.5 230t-45 195.5
t-68.5 173.5t-69.5 139t-68.5 116q-8 12 -11 18q-7 14 -7 19q0 10 13 10q11 0 24 -13q68 -69 128.5 -159t112 -202t82 -249t30.5 -278zM410 -137q0 -10 -13 -10q-12 0 -24 12q-70 70 -128.5 155t-111.5 195t-83 249t-30 290q0 141 30.5 278t82 249t112 202t128.5 159
q13 13 24 13q13 0 13 -10q0 -5 -7 -19q-106 -176 -153 -280q-129 -288 -129 -592q0 -87 11.5 -174t25.5 -151.5t44 -144t47 -120.5t56 -112.5t49.5 -89.5t48.5 -81q7 -14 7 -18zM1620 825q0 -138 -11 -244.5t-37 -197t-68.5 -149t-108 -91t-152.5 -32.5q-131 0 -201.5 70
t-80.5 179v11q0 30 17 51.5t50 21.5q40 0 59 -24.5t19 -61.5v-6v-20q0 -81 31 -123.5t110 -42.5q139 0 197.5 135.5t58.5 458.5v18q-65 -166 -246 -166q-157 0 -243 104t-86 288q0 175 87 283t247 108q358 0 358 -570zM1493 971q0 178 -60 273t-167 95q-222 0 -222 -333
q0 -158 63 -244t161 -86q115 0 170 79.5t55 215.5z" />
    <glyph glyph-name="uni2487" unicode="&#x2487;" 
d="M997 416q-23 -125 -43 -262q-3 -23 -20 -23h-582q-12 0 -12 14q10 131 94 286.5t228 273.5q186 151 186 378q0 121 -49 189.5t-140 68.5q-62 0 -103.5 -20.5t-58 -54.5t-10 -79t36.5 -93q15 -24 15 -47q0 -31 -23 -54t-57 -26h-13q-84 0 -84 110q0 136 79.5 231t222.5 95
q142 0 227.5 -90t85.5 -242q0 -128 -61 -229.5t-218 -218.5q-115 -85 -170 -170.5t-94 -214.5q217 2 299 12q98 12 141.5 43.5t96.5 126.5q3 10 14 10h4q8 -4 8 -10v-4zM2028 754q0 -151 -30 -290t-83 -249t-111.5 -195t-128.5 -155q-12 -12 -24 -12q-13 0 -13 10q0 4 7 18
q38 63 48.5 81t49.5 89.5t56 112.5t47 120.5t44 144t25.5 151.5t11.5 174q0 116 -19.5 230t-45 195.5t-68.5 173.5t-69.5 139t-68.5 116q-8 12 -11 18q-7 14 -7 19q0 10 13 10q11 0 24 -13q68 -69 128.5 -159t112 -202t82 -249t30.5 -278zM410 -137q0 -10 -13 -10
q-12 0 -24 12q-70 70 -128.5 155t-111.5 195t-83 249t-30 290q0 141 30.5 278t82 249t112 202t128.5 159q13 13 24 13q13 0 13 -10q0 -5 -7 -19q-106 -176 -153 -280q-129 -288 -129 -592q0 -87 11.5 -174t25.5 -151.5t44 -144t47 -120.5t56 -112.5t49.5 -89.5t48.5 -81
q7 -14 7 -18zM1731 756q0 -327 -85 -486t-257 -159q-169 0 -254.5 162.5t-85.5 482.5q0 639 340 639q171 0 256.5 -162.5t85.5 -476.5zM1610 754q0 165 -16 282t-46.5 182t-69 94t-89.5 29q-50 0 -88.5 -29t-69 -94t-46.5 -182t-16 -282q0 -135 11 -237t30 -167.5t47 -107
t60 -58t72 -16.5q51 0 89.5 28t69 92.5t46.5 181.5t16 284z" />
    <glyph glyph-name="uni3251" unicode="&#x3251;" 
d="M2023 774q0 -136 -36 -265.5t-100.5 -239t-156.5 -201.5t-201.5 -156.5t-239 -100.5t-265.5 -36t-265.5 36t-239 100.5t-201.5 156.5t-156.5 201.5t-100.5 239t-36 265.5q0 203 79 388t213 319t319 213.5t388 79.5t388 -79.5t319 -213.5t213 -319t79 -388zM1939 774
q0 186 -72.5 355.5t-195 292t-292 194.5t-355.5 72q-149 0 -288.5 -46t-252 -130.5t-196.5 -197t-130 -252t-46 -288.5q0 -186 72 -355.5t194 -292t291.5 -195t355.5 -72.5t355.5 72.5t292 195t195 292t72.5 355.5zM1642 186q0 -16 -20 -16h-395q-21 0 -21 16t17 19
q62 13 98 28q43 17 43 48q0 75 1 249.5t1 247.5q0 95 -1 260t-1 207q0 11 -0.5 15.5t-4.5 8t-13 3.5q-22 0 -129 -29h-5q-16 0 -16 21q0 12 12 18q104 41 256 117q2 2 11 2q14 0 14 -17v-6q-4 -53 -4 -600q0 -94 1 -260t1 -237q0 -30 41 -48q34 -14 98 -28q16 -3 16 -19z
M1055 440q-33 -136 -45 -247q-3 -23 -19 -23h-557q-37 0 -37 23q0 10 2 16q41 165 120.5 288t207.5 224q71 56 112.5 124t53.5 124t12 123q0 247 -176 247q-87 0 -135.5 -35t-48.5 -92q0 -54 45 -114q14 -20 14 -43q0 -31 -25.5 -56.5t-58.5 -25.5q-8 0 -24 4
q-64 20 -64 108q0 64 17.5 118.5t52.5 98t94.5 68.5t136.5 25q135 0 218 -87.5t83 -228.5q0 -65 -11 -115.5t-40 -104t-83 -105.5t-138 -109q-206 -135 -266 -375q132 0 282 9q61 5 96 12.5t63.5 28.5t45.5 45.5t47 76.5q6 15 17 13q8 -4 8 -11v-4z" />
    <glyph glyph-name="uni2170" unicode="&#x2170;" 
d="M1137 1427q0 -45 -34 -81.5t-79 -36.5q-44 0 -78.5 36.5t-34.5 81.5t34.5 81t78.5 36q45 0 79 -36t34 -81zM1241 14q0 -14 -16 -14h-381q-17 0 -17 14q0 17 15 17q78 8 101.5 39t23.5 88v739q0 43 -13 51t-84 8h-20q-10 0 -16.5 5.5t-6.5 11.5q0 13 17 16q138 23 250 68
h4q12 0 12 -21v-878q0 -30 2.5 -46.5t12.5 -36.5t35.5 -30.5t66.5 -13.5q14 0 14 -17z" />
    <glyph glyph-name="uni2171" unicode="&#x2171;" 
d="M1442 1427q0 -45 -34 -81.5t-79 -36.5q-44 0 -78 36.5t-34 81.5t34 81t78 36q45 0 79 -36t34 -81zM907 1427q0 -45 -33.5 -81.5t-78.5 -36.5q-44 0 -78.5 36.5t-34.5 81.5t34.5 81t78.5 36q45 0 78.5 -36t33.5 -81zM1546 14q0 -14 -16 -14h-381q-16 0 -16 14q0 17 14 17
q78 8 101.5 39t23.5 88v739q0 21 -1.5 28.5t-4.5 16t-15.5 10.5t-27 3t-47.5 1h-21q-10 0 -16 5t-6 12q0 13 16 16q138 23 250 68h4q12 0 12 -21v-878q0 -30 2.5 -46.5t12.5 -36.5t35.5 -30.5t66.5 -13.5q14 0 14 -17zM1012 14q0 -14 -17 -14h-381q-16 0 -16 14q0 17 14 17
q78 8 101.5 39t23.5 88v739q0 21 -1.5 28.5t-4.5 16t-15.5 10.5t-27 3t-47.5 1h-20q-10 0 -16.5 5.5t-6.5 11.5q0 13 16 16q138 23 250 68h4q5 0 9 -6t4 -15v-878q0 -31 2.5 -46.5t12.5 -36.5t35 -31t66 -13q15 0 15 -17z" />
    <glyph glyph-name="uni2172" unicode="&#x2172;" 
d="M1599 1427q0 -45 -33.5 -81.5t-78.5 -36.5q-44 0 -78.5 36.5t-34.5 81.5t34.5 81t78.5 36q45 0 78.5 -36t33.5 -81zM1137 1427q0 -45 -34 -81.5t-79 -36.5q-44 0 -78.5 36.5t-34.5 81.5t34.5 81t78.5 36q45 0 79 -36t34 -81zM674 1427q0 -45 -34 -81.5t-79 -36.5
q-44 0 -78 36.5t-34 81.5t34 81t78 36q45 0 79 -36t34 -81zM1704 14q0 -14 -16 -14h-381q-17 0 -17 14q0 17 15 17q78 8 101.5 39t23.5 88v739q0 43 -13 51t-84 8h-20q-10 0 -16.5 5.5t-6.5 11.5q0 13 17 16q136 23 249 68h5q12 0 12 -21v-878q0 -30 2.5 -46.5t12.5 -36.5
t35.5 -30.5t66.5 -13.5q14 0 14 -17zM1241 14q0 -14 -16 -14h-381q-17 0 -17 14q0 17 15 17q78 8 101.5 39t23.5 88v739q0 43 -13 51t-84 8h-20q-10 0 -16.5 5.5t-6.5 11.5q0 13 17 16q138 23 250 68h4q12 0 12 -21v-878q0 -30 2.5 -46.5t12.5 -36.5t35.5 -30.5t66.5 -13.5
q14 0 14 -17zM778 14q0 -14 -16 -14h-381q-16 0 -16 14q0 17 14 17q78 8 101.5 39t23.5 88v739q0 21 -1.5 28.5t-4.5 16t-15.5 10.5t-27 3t-47.5 1h-21q-10 0 -16 5t-6 12q0 13 16 16q138 23 250 68h4q12 0 12 -21v-878q0 -30 2.5 -46.5t12.5 -36.5t35.5 -30.5t66.5 -13.5
q14 0 14 -17z" />
    <glyph glyph-name="uni2173" unicode="&#x2173;" 
d="M694 1427q0 -45 -33.5 -81.5t-78.5 -36.5q-44 0 -78.5 36.5t-34.5 81.5t34.5 81t78.5 36q45 0 78.5 -36t33.5 -81zM799 14q0 -14 -17 -14h-381q-16 0 -16 14q0 17 14 17q78 8 101.5 39t23.5 88v739q0 21 -1.5 28.5t-4.5 16t-15.5 10.5t-27 3t-47.5 1h-20q-10 0 -16.5 5.5
t-6.5 11.5q0 13 16 16q138 23 250 68h4q5 0 9 -6t4 -15v-878q0 -31 2.5 -46.5t12.5 -36.5t35 -31t66 -13q15 0 15 -17zM1767 1024q0 -8 -12 -14q-45 -18 -70.5 -46t-44.5 -77q-14 -35 -154 -393t-194 -500q-6 -14 -12 -14q-5 0 -12 14q-234 554 -408 948q-13 30 -35.5 45
t-60.5 25q-12 3 -12 14q0 12 12 12h348q16 0 16 -14q0 -11 -14 -16q-43 -12 -68.5 -30t-25.5 -38q0 -8 2 -12q101 -257 295 -705q148 376 252 664q6 15 6 28q0 63 -131 97q-10 5 -10 12q0 9 3.5 11.5t12.5 2.5h303q14 0 14 -14z" />
    <glyph glyph-name="uni2174" unicode="&#x2174;" 
d="M1612 1026v-1.5t-1 -2.5t-4 -3.5t-8 -2.5q-114 -22 -151 -125l-344 -891q-18 -18 -19 -18q-7 0 -12.5 4t-9 8.5t-4.5 5.5l-447 942q-15 36 -39.5 49.5t-76.5 18.5q-13 0 -13 14t13 14h391q18 0 18 -12q0 -6 -5.5 -10t-10.5 -4q-103 -15 -103 -64q0 -6 7 -20l321 -703
l252 662q6 18 6 33q0 48 -57 73q-41 18 -80 23q-12 4 -12 10q0 12 18 12h354q17 0 17 -12z" />
    <glyph glyph-name="uni2175" unicode="&#x2175;" 
d="M1604 1427q0 -45 -34 -81.5t-79 -36.5q-44 0 -78.5 36.5t-34.5 81.5t34.5 81t78.5 36q45 0 79 -36t34 -81zM1708 14q0 -14 -16 -14h-381q-17 0 -17 14q0 17 15 17q78 8 101.5 39t23.5 88v739q0 43 -13 51t-84 8h-20q-10 0 -16.5 5.5t-6.5 11.5q0 13 17 16q138 23 250 68
h4q12 0 12 -21v-878q0 -30 2.5 -46.5t12.5 -36.5t35.5 -30.5t66.5 -13.5q14 0 14 -17zM1262 1024q0 -8 -13 -14q-44 -18 -69.5 -46t-44.5 -77q-24 -61 -160 -407.5t-189 -485.5q-6 -14 -12 -14q-5 0 -12 14q-234 554 -408 948q-13 30 -35.5 45t-60.5 25q-12 3 -12 14
q0 12 12 12h348q17 0 17 -14q0 -11 -15 -16q-43 -12 -68.5 -30t-25.5 -38q0 -8 2 -12q101 -257 295 -705q148 376 252 664q6 15 6 28q0 63 -131 97q-10 5 -10 12q0 9 3.5 11.5t12.5 2.5h303q15 0 15 -14z" />
    <glyph glyph-name="uni2176" unicode="&#x2176;" 
d="M1810 1427q0 -45 -33.5 -81.5t-78.5 -36.5q-44 0 -78.5 36.5t-34.5 81.5t34.5 81t78.5 36q45 0 78.5 -36t33.5 -81zM1419 1427q0 -45 -33.5 -81.5t-78.5 -36.5q-44 0 -78.5 36.5t-34.5 81.5t34.5 81t78.5 36q45 0 78.5 -36t33.5 -81zM1915 14q0 -14 -17 -14h-772
q-16 0 -16 14q0 17 14 17q78 8 101.5 39t23.5 88v739q0 21 -1.5 28.5t-4.5 16t-15.5 10.5t-27 3t-47.5 1h-20q-10 0 -16.5 5.5t-6.5 11.5q0 13 16 16q138 23 250 68h4q5 0 9 -6t4 -15v-878q0 -51 35 -84t88 -33q52 0 88 34.5t36 82.5v739q0 21 -1.5 28.5t-4.5 16t-15.5 10.5
t-27 3t-47.5 1h-20q-10 0 -16.5 5.5t-6.5 11.5q0 13 17 16q136 23 249 68h5q12 0 12 -21v-878q0 -30 2.5 -46.5t12.5 -36.5t35.5 -30.5t66.5 -13.5q14 0 14 -17zM1098 1024q0 -8 -13 -14q-44 -18 -69.5 -46t-44.5 -77q-46 -118 -169.5 -459t-158.5 -434q-6 -14 -12 -14
t-13 14q-39 95 -131 325.5t-151 374.5t-105 248q-13 30 -35.5 45t-60.5 25q-12 3 -12 14q0 12 12 12h348q17 0 17 -14q0 -11 -15 -16q-43 -12 -68.5 -31t-25.5 -39q0 -6 2 -10q43 -121 135 -357.5t140 -347.5q95 242 231 664q4 10 4 28q0 64 -129 97q-10 5 -10 12
q0 9 3.5 11.5t12.5 2.5h303q15 0 15 -14z" />
    <glyph glyph-name="uni2177" unicode="&#x2177;" 
d="M1833 1427q0 -45 -34 -81.5t-79 -36.5q-44 0 -78 36.5t-34 81.5t34 81t78 36q45 0 79 -36t34 -81zM1503 1427q0 -45 -33.5 -81.5t-78.5 -36.5q-44 0 -78.5 36.5t-34.5 81.5t34.5 81t78.5 36q45 0 78.5 -36t33.5 -81zM1169 1427q0 -45 -33.5 -81.5t-78.5 -36.5
q-44 0 -78.5 36.5t-34.5 81.5t34.5 81t78.5 36q45 0 78.5 -36t33.5 -81zM1937 14q0 -14 -16 -14h-1044q-17 0 -17 14q0 17 14 17q78 8 101.5 39t23.5 88v739q0 34 -11.5 54t-29.5 20q-39 0 -73 -84q-42 -112 -164 -446t-164 -447q-6 -14 -12 -14t-13 14q-39 95 -131 325.5
t-151 374.5t-105 248q-13 30 -35.5 45t-60.5 25q-12 3 -12 14q0 12 12 12h348q17 0 17 -14q0 -11 -15 -16q-43 -12 -68.5 -31t-25.5 -39q0 -6 2 -10q43 -121 135 -357.5t140 -347.5q95 242 231 664q4 10 4 28q0 64 -129 97q-10 5 -10 12q0 9 3.5 11.5t12.5 2.5q84 -4 180 -4
q192 0 252 23h4q5 0 9 -6t4 -15v-878q0 -45 23.5 -77.5t64.5 -35.5h6q41 0 68.5 34t27.5 79v739q0 21 -1.5 28.5t-4.5 16t-15.5 10.5t-27 3t-47.5 1h-20q-10 0 -16.5 5.5t-6.5 11.5q0 13 16 16q138 23 250 68h4q5 0 9 -6t4 -15v-878q0 -45 22.5 -77.5t63.5 -35.5h6
q41 0 67.5 34t26.5 79v739q0 21 -1.5 28.5t-4.5 16t-15.5 10.5t-27 3t-47.5 1h-21q-10 0 -16 5t-6 12q0 13 16 16q138 23 250 68h4q12 0 12 -21v-878q0 -30 2.5 -46.5t12.5 -36.5t35.5 -30.5t66.5 -13.5q14 0 14 -17z" />
    <glyph glyph-name="uni2178" unicode="&#x2178;" 
d="M680 1427q0 -45 -34 -81.5t-79 -36.5q-44 0 -78 36.5t-34 81.5t34 81t78 36q45 0 79 -36t34 -81zM784 14q0 -14 -16 -14h-381q-16 0 -16 14q0 17 14 17q78 8 101.5 39t23.5 88v739q0 21 -1.5 28.5t-4.5 16t-15.5 10.5t-27 3t-47.5 1h-21q-10 0 -16 5t-6 12q0 13 16 16
q138 23 250 68h4q12 0 12 -21v-878q0 -30 2.5 -46.5t12.5 -36.5t35.5 -30.5t66.5 -13.5q14 0 14 -17zM1812 14q0 -14 -16 -14h-352q-14 0 -14 14q0 11 12 15q33 6 50 21.5t17 35.5q0 16 -10 33q-73 129 -205 336q-85 -134 -196 -326q-11 -18 -11 -31q0 -45 91 -71
q14 -3 14 -13q0 -14 -14 -14h-334q-10 0 -10 12t10 15q64 17 95 32.5t54 49.5q120 180 258 407q-22 35 -61 99t-63 102t-62 96.5t-78 116.5q-36 53 -125 78q-12 3 -12 16q0 14 16 14h342q15 0 15 -14q0 -10 -13 -14q-33 -6 -49 -22t-16 -36q0 -19 8 -32q78 -140 172 -291
q119 187 170 280q8 13 8 31q0 26 -21.5 45t-56.5 27q-14 3 -14 12q0 14 14 14h310q10 0 10 -12q0 -11 -10 -14q-60 -16 -88 -31.5t-50 -50.5q-71 -110 -229 -363q210 -332 297 -458q32 -47 135 -78q12 -3 12 -17z" />
    <glyph glyph-name="uni2179" unicode="&#x2179;" 
d="M1577 16q0 -16 -8 -16h-402q-8 0 -10 2.5t-2 9.5q0 10 10 13q103 17 103 55q0 11 -11 26l-241 347l-230 -322q-10 -13 -10 -27q0 -50 111 -79q10 -3 10 -13v-6q0 -6 -10 -6h-348q-4 0 -8.5 4.5t-4.5 11.5q0 11 11 15q105 29 141 78l299 405l-313 432q-26 35 -47 47
t-58 15q-12 0 -12 14q0 16 16 16h350q11 0 11 -12q0 -14 -13 -16q-80 -14 -80 -37q0 -7 11 -25l217 -317l215 297q8 11 8 22q0 22 -29.5 39t-76.5 21q-13 0 -13 16q0 12 11 12h323q16 0 16 -16q0 -10 -10 -12q-86 -11 -127 -68l-270 -367l328 -475q41 -60 131 -69q4 0 8 -5
t4 -10z" />
    <glyph glyph-name="uni3252" unicode="&#x3252;" 
d="M2023 774q0 -136 -36 -265.5t-100.5 -239t-156.5 -201.5t-201.5 -156.5t-239 -100.5t-265.5 -36t-265.5 36t-239 100.5t-201.5 156.5t-156.5 201.5t-100.5 239t-36 265.5q0 203 79 388t213 319t319 213.5t388 79.5t388 -79.5t319 -213.5t213 -319t79 -388zM1939 774
q0 186 -72.5 355.5t-195 292t-292 194.5t-355.5 72q-149 0 -288.5 -46t-252 -130.5t-196.5 -197t-130 -252t-46 -288.5q0 -186 72 -355.5t194 -292t291.5 -195t355.5 -72.5t355.5 72.5t292 195t195 292t72.5 355.5zM1696 440q-33 -136 -45 -247q-3 -23 -19 -23h-559
q-35 0 -35 23q0 10 2 16q41 166 120 288.5t208 223.5q102 81 139 173.5t37 197.5q0 247 -176 247q-86 0 -135 -36t-49 -93q0 -55 45 -112q14 -20 14 -43q0 -31 -25.5 -56.5t-58.5 -25.5q-6 0 -22 4q-66 20 -66 108q0 135 76 222.5t227 87.5q135 0 218 -87.5t83 -228.5
q0 -131 -56.5 -228t-217.5 -206q-202 -135 -266 -375q132 0 282 9q80 6 122.5 22t67.5 44.5t62 96.5q6 16 17 13q10 -3 10 -11v-4zM989 440q-35 -160 -45 -247q-3 -23 -18 -23h-557q-37 0 -37 25q0 8 2 14q41 165 120.5 288t207.5 224q71 56 112.5 124t53.5 124t12 123
q0 247 -176 247q-87 0 -136 -35t-49 -92q0 -54 45 -114q15 -21 15 -43q0 -31 -25.5 -56.5t-58.5 -25.5q-9 0 -25 4q-63 20 -63 108q0 135 76 222.5t227 87.5q134 0 217.5 -87.5t83.5 -228.5q0 -130 -56.5 -227t-218.5 -207q-206 -135 -266 -375q133 0 283 9q61 5 96 12.5
t63.5 28.5t45.5 45.5t47 76.5q6 15 16 13q8 -4 8 -11v-4z" />
    <glyph glyph-name="uni3253" unicode="&#x3253;" 
d="M2023 774q0 -136 -36 -265.5t-100.5 -239t-156.5 -201.5t-201.5 -156.5t-239 -100.5t-265.5 -36t-265.5 36t-239 100.5t-201.5 156.5t-156.5 201.5t-100.5 239t-36 265.5q0 203 79 388t213 319t319 213.5t388 79.5t388 -79.5t319 -213.5t213 -319t79 -388zM1939 774
q0 186 -72.5 355.5t-195 292t-292 194.5t-355.5 72q-149 0 -288.5 -46t-252 -130.5t-196.5 -197t-130 -252t-46 -288.5q0 -186 72 -355.5t194 -292t291.5 -195t355.5 -72.5t355.5 72.5t292 195t195 292t72.5 355.5zM991 438q-30 -135 -43 -245q-3 -23 -18 -23h-533
q-35 0 -35 25q0 5 3 14q41 166 117.5 288.5t199.5 223.5q174 140 174 371q0 247 -172 247q-84 0 -131 -35.5t-47 -93.5q0 -54 43 -112q14 -20 14 -43q0 -33 -24.5 -57.5t-57.5 -24.5q-6 0 -22 4q-64 20 -64 108q0 63 17.5 118t52 98.5t92.5 68.5t133 25q131 0 212 -87.5
t81 -228.5q0 -130 -55 -227t-211 -207q-198 -137 -258 -375q117 0 264 9q110 9 150.5 37.5t93.5 125.5q3 13 10 13q4 0 6 -2q8 -4 8 -11v-4zM1712 506q0 -176 -85.5 -265t-250.5 -89q-81 0 -141.5 20t-95 55t-52.5 74.5t-22 85.5q-3 41 16.5 73t57.5 32q36 0 58 -25t22 -70
q0 -41 1.5 -63.5t9 -47t23 -37.5t42 -23t67.5 -15q3 0 10 -1t10 -1q90 0 148.5 73t58.5 187q0 25 -2 39q-15 149 -98.5 219t-237.5 72q-30 0 -30 22q0 11 5 16t10 6t15 1q150 2 236 61t86 185q0 5 -1 14t-1 14q-6 104 -56 162.5t-143 58.5q-80 0 -121 -25.5t-41 -64.5
q0 -29 25 -65q10 -13 10 -37q0 -31 -21.5 -56.5t-54.5 -25.5q-8 0 -24 4q-55 15 -55 84q0 105 77 175.5t209 70.5q145 0 227.5 -79t82.5 -204q0 -131 -68 -208.5t-170 -80.5q-25 0 -25 -4q11 -2 25 -2q103 0 183.5 -94.5t80.5 -220.5z" />
    <glyph glyph-name="uni3254" unicode="&#x3254;" 
d="M2023 774q0 -136 -36 -265.5t-100.5 -239t-156.5 -201.5t-201.5 -156.5t-239 -100.5t-265.5 -36t-265.5 36t-239 100.5t-201.5 156.5t-156.5 201.5t-100.5 239t-36 265.5q0 203 79 388t213 319t319 213.5t388 79.5t388 -79.5t319 -213.5t213 -319t79 -388zM1939 774
q0 186 -72.5 355.5t-195 292t-292 194.5t-355.5 72q-149 0 -288.5 -46t-252 -130.5t-196.5 -197t-130 -252t-46 -288.5q0 -186 72 -355.5t194 -292t291.5 -195t355.5 -72.5t355.5 72.5t292 195t195 292t72.5 355.5zM1694 532q0 -12 -1.5 -19t-7 -9.5t-9 -3t-13.5 -0.5h-121
v-219q0 -27 37 -45q2 -1 29.5 -13t42.5 -16q16 -6 16 -21q0 -18 -20 -18h-334q-19 0 -19 18q0 15 15 21q32 6 86 29q37 16 37 45v219h-369q-18 0 -23.5 6t-5.5 22q0 19 6 29l7 10q34 60 440 822q10 16 24 16q2 0 6.5 -1t6.5 -1q18 -7 18 -31v-805h121q17 0 24 -6t7 -29z
M993 438q-30 -135 -43 -245q-4 -25 -18 -25h-531q-36 0 -36 27q0 8 2 14q39 167 114.5 290t196.5 224q67 55 106.5 123t50.5 123.5t11 122.5q0 245 -164 245q-81 0 -127.5 -35t-46.5 -90q0 -54 43 -112q14 -20 14 -43q0 -34 -25 -60t-57 -26q-6 0 -22 4q-64 20 -64 110
q0 64 17 119t51 99t90.5 69t130.5 25q129 0 209 -88t80 -230q0 -131 -54 -228.5t-208 -205.5q-189 -134 -250 -373q123 0 264 9q58 5 91 12.5t60 28.5t43 45t44 77q3 13 12 13q4 0 6 -2q10 -3 10 -13v-4zM1442 1161q-30 -55 -146.5 -272t-173.5 -322h310q0 438 10 594z" />
    <glyph glyph-name="uni3255" unicode="&#x3255;" 
d="M2023 774q0 -136 -36 -265.5t-100.5 -239t-156.5 -201.5t-201.5 -156.5t-239 -100.5t-265.5 -36t-265.5 36t-239 100.5t-201.5 156.5t-156.5 201.5t-100.5 239t-36 265.5q0 203 79 388t213 319t319 213.5t388 79.5t388 -79.5t319 -213.5t213 -319t79 -388zM1939 774
q0 186 -72.5 355.5t-195 292t-292 194.5t-355.5 72q-149 0 -288.5 -46t-252 -130.5t-196.5 -197t-130 -252t-46 -288.5q0 -186 72 -355.5t194 -292t291.5 -195t355.5 -72.5t355.5 72.5t292 195t195 292t72.5 355.5zM991 438q-22 -98 -33 -164q-9 -63 -10 -81q-3 -23 -18 -23
h-541q-35 0 -35 23q0 10 2 16q39 165 116 288t202 224q172 139 172 371q0 247 -172 247q-84 0 -131 -35.5t-47 -93.5q0 -54 43 -112q14 -20 14 -43q0 -33 -24.5 -57.5t-57.5 -24.5q-6 0 -22 4q-62 20 -62 108q0 134 73.5 222t219.5 88q131 0 212 -87.5t81 -228.5
q0 -131 -54.5 -228t-211.5 -206q-198 -137 -258 -375q127 0 274 9q110 9 150.5 37.5t93.5 125.5q3 13 10 13q4 0 6 -2q8 -4 8 -11v-4zM1706 543q0 -188 -83 -294t-261 -106q-72 0 -131 24.5t-94 62.5t-53.5 79t-20.5 80v8q0 87 72 90q34 0 53.5 -21.5t19.5 -64.5v-10v-16
q0 -71 34 -120.5t114 -49.5q113 0 172 76t59 217v20q-11 332 -237 332q-62 0 -113 -36t-86 -93q-15 -21 -25 -21q-1 0 -16 5q-10 5 -10 34v21q32 522 37 600q0 16 16 16h395q52 0 80 25l4 4q4 4 10 4h5q9 -3 6 -14q-14 -49 -25 -123q-3 -15 -18 -15h-418q-21 -282 -27 -438
v-10q4 0 13 12q24 33 71 64.5t90 34.5h25q160 0 251 -103.5t91 -273.5z" />
    <glyph glyph-name="uni3256" unicode="&#x3256;" 
d="M2023 774q0 -136 -36 -265.5t-100.5 -239t-156.5 -201.5t-201.5 -156.5t-239 -100.5t-265.5 -36t-265.5 36t-239 100.5t-201.5 156.5t-156.5 201.5t-100.5 239t-36 265.5q0 203 79 388t213 319t319 213.5t388 79.5t388 -79.5t319 -213.5t213 -319t79 -388zM1939 774
q0 186 -72.5 355.5t-195 292t-292 194.5t-355.5 72q-149 0 -288.5 -46t-252 -130.5t-196.5 -197t-130 -252t-46 -288.5q0 -186 72 -355.5t194 -292t291.5 -195t355.5 -72.5t355.5 72.5t292 195t195 292t72.5 355.5zM991 438q-30 -135 -43 -245q-3 -23 -18 -23h-541
q-35 0 -35 23q0 10 2 16q39 165 116 288t202 224q172 139 172 371q0 247 -172 247q-84 0 -131 -35t-47 -92q0 -54 45 -114q14 -20 14 -43q0 -31 -25.5 -56.5t-58.5 -25.5q-6 0 -22 4q-62 20 -62 108q0 64 17 118.5t51.5 98t92 68.5t132.5 25q131 0 212 -87.5t81 -228.5
q0 -131 -54.5 -228t-211.5 -206q-198 -137 -258 -375q127 0 274 9q110 9 150.5 37.5t93.5 125.5q3 13 10 13q4 0 6 -2q8 0 8 -11v-4zM1708 530q0 -168 -77.5 -274t-231.5 -106q-166 0 -251 133t-85 419q0 135 9.5 238t33.5 193.5t63.5 148t101.5 90.5t146 33
q111 0 181.5 -72.5t70.5 -173.5q0 -32 -18.5 -57t-55.5 -25q-65 0 -65 74v16q2 14 2 39q0 69 -29 104.5t-96 35.5q-132 0 -184 -131.5t-54 -448.5q74 154 228 154q153 0 232 -104t79 -286zM1595 528q0 156 -57.5 237t-148.5 81q-101 0 -156 -72t-55 -196v-15
q3 -167 61.5 -257.5t157.5 -90.5q101 0 149.5 77t48.5 236z" />
    <glyph glyph-name="uni3257" unicode="&#x3257;" 
d="M2023 774q0 -136 -36 -265.5t-100.5 -239t-156.5 -201.5t-201.5 -156.5t-239 -100.5t-265.5 -36t-265.5 36t-239 100.5t-201.5 156.5t-156.5 201.5t-100.5 239t-36 265.5q0 203 79 388t213 319t319 213.5t388 79.5t388 -79.5t319 -213.5t213 -319t79 -388zM1939 774
q0 166 -56 317t-159 271q-182 -244 -251.5 -471t-88.5 -627v-18q0 -35 -8 -47q-17 -31 -71 -31q-41 0 -57.5 14t-16.5 43q0 21 2 31q41 307 137.5 576t237.5 446h-305q-56 0 -90 -6t-58.5 -26t-37 -40t-34.5 -65q-7 -17 -18 -17q-16 0 -12 19q20 106 34 231q1 16 7 19.5
t20 3.5h580q-127 136 -301.5 213.5t-368.5 77.5q-149 0 -288.5 -46t-252 -130.5t-196.5 -197t-130 -252t-46 -288.5q0 -186 72 -355.5t194 -292t291.5 -195t355.5 -72.5t355.5 72.5t292 195t195 292t72.5 355.5zM991 440q-36 -151 -47 -247q0 -23 -16 -23h-559q-37 0 -37 25
q0 8 2 14q41 165 120.5 288t207.5 224q72 56 113.5 124t53 124t11.5 123q0 247 -176 247q-86 0 -135.5 -36t-49.5 -93q0 -55 45 -112q15 -21 15 -43q0 -31 -25.5 -56.5t-58.5 -25.5q-7 0 -23 4q-65 20 -65 108q0 135 76 222.5t227 87.5q135 0 218 -87.5t83 -228.5
q0 -130 -56.5 -227t-218.5 -207q-202 -135 -266 -375q133 0 283 9q61 5 96 12.5t63.5 28.5t45.5 45.5t47 76.5q6 15 16 13q10 -3 10 -11v-4z" />
    <glyph glyph-name="uni3258" unicode="&#x3258;" 
d="M2023 774q0 -136 -36 -265.5t-100.5 -239t-156.5 -201.5t-201.5 -156.5t-239 -100.5t-265.5 -36t-265.5 36t-239 100.5t-201.5 156.5t-156.5 201.5t-100.5 239t-36 265.5q0 203 79 388t213 319t319 213.5t388 79.5t388 -79.5t319 -213.5t213 -319t79 -388zM1939 774
q0 186 -72.5 355.5t-195 292t-292 194.5t-355.5 72q-149 0 -288.5 -46t-252 -130.5t-196.5 -197t-130 -252t-46 -288.5q0 -164 55.5 -314.5t155.5 -273.5q0 13 2 23q41 165 120 288t207 224q72 55 113.5 123.5t53 124.5t11.5 123q0 245 -176 245q-87 0 -135.5 -35t-48.5 -92
q0 -52 45 -112q14 -20 14 -43q0 -31 -25.5 -56.5t-58.5 -25.5q-8 0 -24 4q-64 20 -64 108q0 133 76 221.5t227 88.5q134 0 218 -87.5t84 -228.5q0 -130 -56.5 -227t-218.5 -207q-201 -134 -266 -377q99 0 282 11q61 5 96 12.5t63.5 28.5t45.5 45.5t47 76.5q3 13 11 13
q4 0 6 -2q10 -5 10 -9q0 -1 -1 -3t-1 -3q-34 -153 -45 -245q-3 -23 -16 -23h-560q-18 0 -24 2q128 -147 307 -230t383 -83q186 0 355.5 72.5t292 195t195 292t72.5 355.5zM1716 481q0 -167 -88.5 -252.5t-243.5 -85.5q-158 0 -246.5 86.5t-88.5 247.5q0 224 239 336
q-108 63 -156.5 127.5t-48.5 163.5q0 128 76.5 210.5t218.5 82.5q144 0 223.5 -80.5t79.5 -210.5q0 -95 -50.5 -157t-164.5 -118q250 -127 250 -350zM1577 1106q0 103 -55.5 168t-147.5 65q-90 0 -138 -58t-48 -155v-22q6 -73 59 -130.5t166 -109.5q77 40 120.5 101.5
t43.5 140.5zM1597 471q0 95 -58.5 165.5t-195.5 141.5q-96 -47 -139 -114.5t-43 -180.5q0 -118 60 -197t163 -79q106 0 159.5 68t53.5 196z" />
    <glyph glyph-name="uni3259" unicode="&#x3259;" 
d="M2023 774q0 -136 -36 -265.5t-100.5 -239t-156.5 -201.5t-201.5 -156.5t-239 -100.5t-265.5 -36t-265.5 36t-239 100.5t-201.5 156.5t-156.5 201.5t-100.5 239t-36 265.5q0 203 79 388t213 319t319 213.5t388 79.5t388 -79.5t319 -213.5t213 -319t79 -388zM1939 774
q0 186 -72.5 355.5t-195 292t-292 194.5t-355.5 72q-149 0 -288.5 -46t-252 -130.5t-196.5 -197t-130 -252t-46 -288.5q0 -186 72 -355.5t194 -292t291.5 -195t355.5 -72.5t355.5 72.5t292 195t195 292t72.5 355.5zM981 438q-30 -135 -43 -245q-3 -23 -18 -23h-541
q-35 0 -35 23q0 10 2 16q39 165 116 288t202 224q172 139 172 371q0 245 -172 245q-84 0 -131.5 -34.5t-47.5 -90.5q0 -54 45 -114q15 -21 15 -43q0 -31 -25.5 -56.5t-58.5 -25.5q-7 0 -23 4q-61 19 -61 108q0 134 73.5 222t219.5 88q131 0 212 -87.5t81 -228.5
q0 -131 -55 -228t-212 -206q-197 -136 -258 -377q95 0 275 11q59 5 92.5 12.5t61 28.5t44 45.5t45.5 76.5q3 13 11 13q4 0 6 -2q8 -4 8 -11v-4zM1712 844q0 -169 -16.5 -290.5t-55.5 -215.5t-109.5 -141t-172.5 -47q-124 0 -191 68.5t-77 174.5v6q0 33 16 55.5t49 22.5
q43 0 59.5 -27.5t18 -67t5.5 -79t33.5 -67t90.5 -27.5q87 0 138.5 57t75 182.5t23.5 339.5q-63 -153 -229 -153q-148 0 -229.5 101.5t-81.5 279.5q0 172 78 276.5t229 104.5q163 0 254.5 -135t91.5 -418zM1589 983q0 171 -56 262.5t-155 91.5q-204 0 -204 -319
q0 -152 58 -235t148 -83q106 0 157.5 76t51.5 207z" />
    <glyph glyph-name="uni325A" unicode="&#x325a;" 
d="M2023 774q0 -136 -36 -265.5t-100.5 -239t-156.5 -201.5t-201.5 -156.5t-239 -100.5t-265.5 -36t-265.5 36t-239 100.5t-201.5 156.5t-156.5 201.5t-100.5 239t-36 265.5q0 203 79 388t213 319t319 213.5t388 79.5t388 -79.5t319 -213.5t213 -319t79 -388zM1939 774
q0 186 -72.5 355.5t-195 292t-292 194.5t-355.5 72q-149 0 -288.5 -46t-252 -130.5t-196.5 -197t-130 -252t-46 -288.5q0 -186 72 -355.5t194 -292t291.5 -195t355.5 -72.5t355.5 72.5t292 195t195 292t72.5 355.5zM981 506q0 -176 -85 -265t-249 -89q-155 0 -229.5 68
t-81.5 167v12q0 38 18.5 65.5t53.5 27.5q37 0 58 -25t21 -70q0 -50 3.5 -77t17.5 -52.5t43.5 -38t79.5 -18.5q3 0 10 -1t10 -1q90 0 148.5 73t58.5 187q0 25 -2 39q-13 148 -97 218.5t-237 72.5q-18 0 -24 4.5t-6 17.5q0 11 5 16t10 6t15 1q149 2 234.5 61t85.5 185
q0 5 -1 14t-1 14q-6 104 -56 162.5t-143 58.5q-81 0 -120.5 -25.5t-39.5 -66.5q0 -30 23 -63q12 -15 12 -37q0 -31 -23 -56.5t-55 -25.5q-8 0 -24 4q-56 16 -56 84q0 105 77.5 175.5t211.5 70.5q144 0 226.5 -79t82.5 -204q0 -131 -68.5 -208.5t-170.5 -80.5q-23 0 -23 -4
q9 -2 23 -2q104 0 184 -94.5t80 -220.5zM1708 776q0 -318 -79.5 -472t-242.5 -154q-321 0 -321 626q0 621 321 621q161 0 241.5 -158.5t80.5 -462.5zM1591 774q0 160 -15 272.5t-43.5 175t-64 90t-82.5 27.5q-46 0 -81.5 -27.5t-64 -90t-43.5 -175t-15 -272.5
q0 -162 15 -275t43.5 -175t64 -88.5t81.5 -26.5q47 0 82.5 26.5t64 88.5t43.5 175t15 275z" />
    <glyph glyph-name="uni325B" unicode="&#x325b;" 
d="M2023 774q0 -136 -36 -265.5t-100.5 -239t-156.5 -201.5t-201.5 -156.5t-239 -100.5t-265.5 -36t-265.5 36t-239 100.5t-201.5 156.5t-156.5 201.5t-100.5 239t-36 265.5q0 203 79 388t213 319t319 213.5t388 79.5t388 -79.5t319 -213.5t213 -319t79 -388zM1939 774
q0 186 -72.5 355.5t-195 292t-292 194.5t-355.5 72q-149 0 -288.5 -46t-252 -130.5t-196.5 -197t-130 -252t-46 -288.5q0 -186 72 -355.5t194 -292t291.5 -195t355.5 -72.5t355.5 72.5t292 195t195 292t72.5 355.5zM1642 186q0 -16 -20 -16h-395q-21 0 -21 16t15 19
q44 6 100 28q20 9 30.5 19t10.5 29q0 75 1 248.5t1 248.5q0 95 -1 260t-1 207q0 10 -0.5 14.5t-4 8.5t-11.5 4q-10 0 -129 -29h-5q-16 0 -16 21q0 13 12 16q83 34 256 117q8 4 13 4q12 0 12 -19v-4q-6 -80 -6 -600q0 -94 1 -260t1 -237q0 -31 43 -48q43 -19 98 -28
q16 -6 16 -19zM1049 506q0 -176 -87 -265t-257 -89q-84 0 -146.5 20t-98.5 55t-54.5 74.5t-22.5 85.5v10q0 40 20 67.5t56 27.5q37 0 59.5 -25t22.5 -70q0 -41 2 -63.5t9.5 -47t23.5 -37.5t43.5 -23t68.5 -15q4 0 11.5 -1t11.5 -1q91 0 151 72.5t60 185.5q0 27 -2 41
q-13 148 -100 218.5t-245 72.5q-18 0 -24 4.5t-6 17.5q0 11 5 16t10 6t15 1q330 3 330 250v24q-8 104 -59.5 162.5t-147.5 58.5q-82 0 -124 -25.5t-42 -64.5q0 -29 25 -65q12 -15 12 -37q0 -31 -23 -56.5t-57 -25.5q-8 0 -24 4q-57 16 -57 84q0 105 80 175.5t217 70.5
q149 0 234 -79t85 -204q0 -130 -71 -208t-175 -81q-24 0 -24 -4q8 -2 24 -2q105 0 188 -94.5t83 -220.5z" />
    <glyph glyph-name="uni249C" unicode="&#x249c;" 
d="M1520 365q0 -10 -19 -23q-19 -19 -50 -31t-62 -12q-144 0 -144 143q-54 -67 -148 -105t-186 -38q-143 0 -214.5 62.5t-71.5 175.5q0 131 83 197t248 89q59 8 145 28t134 38q0 143 -61 204.5t-173 61.5q-119 0 -169 -31.5t-50 -89.5q0 -8 14.5 -31.5t14.5 -39.5
q0 -80 -78 -80q-34 0 -54 27t-20 65q0 102 96.5 169.5t262.5 67.5q174 0 258 -81.5t84 -245.5v-393q0 -73 17 -106.5t59 -33.5q32 0 59 21l8 4l4 2q3 0 11 -8q2 -2 2 -6zM2028 754q0 -151 -30 -290t-83 -249t-111.5 -195t-128.5 -155q-12 -12 -24 -12q-13 0 -13 10q0 4 7 18
q38 63 48.5 81t49.5 89.5t56 112.5t47 120.5t44 144t25.5 151.5t11.5 174q0 116 -19.5 230t-45 195.5t-68.5 173.5t-69.5 139t-68.5 116q-8 12 -11 18q-7 14 -7 19q0 10 13 10q11 0 24 -13q68 -69 128.5 -159t112 -202t82 -249t30.5 -278zM410 -137q0 -10 -13 -10
q-12 0 -24 12q-70 70 -128.5 155t-111.5 195t-83 249t-30 290q0 141 30.5 278t82 249t112 202t128.5 159q13 13 24 13q13 0 13 -10q0 -5 -7 -19q-106 -176 -153 -280q-129 -288 -129 -592q0 -87 11.5 -174t25.5 -151.5t44 -144t47 -120.5t56 -112.5t49.5 -89.5t48.5 -81
q7 -14 7 -18zM1239 518v318q-108 -46 -276 -72q-218 -39 -218 -217q0 -164 211 -164q90 0 175.5 41.5t107.5 93.5z" />
    <glyph glyph-name="uni249D" unicode="&#x249d;" 
d="M1444 549q0 -210 -115 -332.5t-297 -122.5q-71 0 -145.5 31.5t-114.5 77.5q-10 -9 -106 -105q-2 -2 -7 -2q-12 0 -12 17v1173q0 34 -16 42.5t-84 8.5q-19 0 -19 13q0 10 15 14q96 15 207 57q1 0 2 1t2 1q10 0 10 -18v-510q41 53 118.5 83t170.5 30q183 0 287 -121.5
t104 -337.5zM2028 754q0 -151 -30 -290t-83 -249t-111.5 -195t-128.5 -155q-12 -12 -24 -12q-13 0 -13 10q0 4 7 18q38 63 48.5 81t49.5 89.5t56 112.5t47 120.5t44 144t25.5 151.5t11.5 174q0 116 -19.5 230t-45 195.5t-68.5 173.5t-69.5 139t-68.5 116q-8 12 -11 18
q-7 14 -7 19q0 10 13 10q11 0 24 -13q68 -69 128.5 -159t112 -202t82 -249t30.5 -278zM410 -137q0 -10 -13 -10q-12 0 -24 12q-70 70 -128.5 155t-111.5 195t-83 249t-30 290q0 141 30.5 278t82 249t112 202t128.5 159q13 13 24 13q13 0 13 -10q0 -5 -7 -19
q-106 -176 -153 -280q-129 -288 -129 -592q0 -87 11.5 -174t25.5 -151.5t44 -144t47 -120.5t56 -112.5t49.5 -89.5t48.5 -81q7 -14 7 -18zM1311 502q0 444 -301 444q-82 0 -151.5 -39.5t-102.5 -111.5v-385q0 -111 79.5 -179.5t196.5 -68.5q133 0 206 85t73 255z" />
    <glyph glyph-name="uni249E" unicode="&#x249e;" 
d="M2028 754q0 -151 -30 -290t-83 -249t-111.5 -195t-128.5 -155q-12 -12 -24 -12q-13 0 -13 10q0 4 7 18q38 63 48.5 81t49.5 89.5t56 112.5t47 120.5t44 144t25.5 151.5t11.5 174q0 116 -19.5 230t-45 195.5t-68.5 173.5t-69.5 139t-68.5 116q-8 12 -11 18q-7 14 -7 19
q0 10 13 10q11 0 24 -13q68 -69 128.5 -159t112 -202t82 -249t30.5 -278zM410 -137q0 -10 -13 -10q-12 0 -24 12q-70 70 -128.5 155t-111.5 195t-83 249t-30 290q0 141 30.5 278t82 249t112 202t128.5 159q13 13 24 13q13 0 13 -10q0 -5 -7 -19q-106 -176 -153 -280
q-129 -288 -129 -592q0 -87 11.5 -174t25.5 -151.5t44 -144t47 -120.5t56 -112.5t49.5 -89.5t48.5 -81q7 -14 7 -18zM1411 975q0 -39 -17.5 -61.5t-45.5 -22.5q-41 0 -64.5 22.5t-23.5 51.5q0 93 -59 141.5t-152 48.5q-118 0 -195.5 -93.5t-77.5 -264.5q0 -104 28.5 -187
t75.5 -133.5t105.5 -77t122.5 -26.5q91 0 151 34.5t109 116.5q6 6 16 6q7 0 11 -2q14 -10 6 -26q-39 -92 -124 -149.5t-190 -57.5q-202 0 -325 125.5t-123 331.5q0 207 124.5 331.5t311.5 124.5q144 0 240 -75t96 -158z" />
    <glyph glyph-name="uni249F" unicode="&#x249f;" 
d="M2028 754q0 -151 -30 -290t-83 -249t-111.5 -195t-128.5 -155q-12 -12 -24 -12q-13 0 -13 10q0 4 7 18q38 63 48.5 81t49.5 89.5t56 112.5t47 120.5t44 144t25.5 151.5t11.5 174q0 116 -19.5 230t-45 195.5t-68.5 173.5t-69.5 139t-68.5 116q-8 12 -11 18q-7 14 -7 19
q0 10 13 10q11 0 24 -13q68 -69 128.5 -159t112 -202t82 -249t30.5 -278zM1503 180q0 -12 -12 -18q-21 -8 -63.5 -23.5t-76 -28t-57.5 -20.5h-4q-10 0 -10 19v96q-41 -54 -118 -84.5t-171 -30.5q-180 0 -296.5 122.5t-116.5 336.5q0 206 120.5 330.5t298.5 124.5
q86 0 158.5 -28t114.5 -75v381q0 34 -16.5 42.5t-84.5 8.5q-16 0 -16 15q0 11 12 14q118 20 207 57q5 2 9.5 -3.5t4.5 -14.5v-1176q0 -24 5.5 -31.5t27.5 -7.5q12 0 66 7h4q14 0 14 -13zM410 -137q0 -10 -13 -10q-12 0 -24 12q-70 70 -128.5 155t-111.5 195t-83 249t-30 290
q0 141 30.5 278t82 249t112 202t128.5 159q13 13 24 13q13 0 13 -10q0 -5 -7 -19q-106 -176 -153 -280q-129 -288 -129 -592q0 -87 11.5 -174t25.5 -151.5t44 -144t47 -120.5t56 -112.5t49.5 -89.5t48.5 -81q7 -14 7 -18zM1276 307v395q0 110 -77.5 174t-199.5 64
q-132 0 -210 -91t-78 -263q0 -218 87.5 -324t233.5 -106q79 0 146 41.5t98 109.5z" />
    <glyph glyph-name="uni24A0" unicode="&#x24a0;" 
d="M2028 754q0 -151 -30 -290t-83 -249t-111.5 -195t-128.5 -155q-12 -12 -24 -12q-13 0 -13 10q0 4 7 18q38 63 48.5 81t49.5 89.5t56 112.5t47 120.5t44 144t25.5 151.5t11.5 174q0 116 -19.5 230t-45 195.5t-68.5 173.5t-69.5 139t-68.5 116q-8 12 -11 18q-7 14 -7 19
q0 10 13 10q11 0 24 -13q68 -69 128.5 -159t112 -202t82 -249t30.5 -278zM410 -137q0 -10 -13 -10q-12 0 -24 12q-70 70 -128.5 155t-111.5 195t-83 249t-30 290q0 141 30.5 278t82 249t112 202t128.5 159q13 13 24 13q13 0 13 -10q0 -5 -7 -19q-106 -176 -153 -280
q-129 -288 -129 -592q0 -87 11.5 -174t25.5 -151.5t44 -144t47 -120.5t56 -112.5t49.5 -89.5t48.5 -81q7 -14 7 -18zM1415 803q0 -26 -3.5 -34t-16.5 -9l-641 -55q18 -161 109.5 -248.5t219.5 -87.5q180 0 283 133q8 8 14 8q7 0 13 -6q8 -4 8 -15q-2 -2 -2 -4
q-91 -190 -336 -190q-198 0 -316 126t-118 333q0 210 115 333t300 123q154 0 262.5 -110t108.5 -297zM1296 840q0 59 -15.5 113.5t-46.5 101.5t-86 75.5t-126 28.5q-123 0 -197.5 -95.5t-74.5 -266.5v-35l538 61q8 0 8 17z" />
    <glyph glyph-name="uni24A1" unicode="&#x24a1;" 
d="M1323 1288q0 -69 -55 -69q-62 0 -62 67q0 51 -14.5 67.5t-52.5 16.5q-95 0 -95 -242v-133h175q5 0 8.5 -10.5t3.5 -23.5q0 -8 -4 -14.5t-8 -6.5h-175v-690q0 -49 23.5 -74t103.5 -35q13 -7 13 -14q0 -12 -13 -12h-356q-14 0 -14 12t12 14q68 6 91.5 33.5t23.5 75.5v690
h-133q-4 0 -9.5 9.5t-5.5 15.5q0 30 15 30h133v148q0 136 57 208t160 72q87 0 132.5 -37.5t45.5 -97.5zM2028 754q0 -151 -30 -290t-83 -249t-111.5 -195t-128.5 -155q-12 -12 -24 -12q-13 0 -13 10q0 4 7 18q38 63 48.5 81t49.5 89.5t56 112.5t47 120.5t44 144t25.5 151.5
t11.5 174q0 116 -19.5 230t-45 195.5t-68.5 173.5t-69.5 139t-68.5 116q-8 12 -11 18q-7 14 -7 19q0 10 13 10q11 0 24 -13q68 -69 128.5 -159t112 -202t82 -249t30.5 -278zM410 -137q0 -10 -13 -10q-12 0 -24 12q-70 70 -128.5 155t-111.5 195t-83 249t-30 290
q0 141 30.5 278t82 249t112 202t128.5 159q13 13 24 13q13 0 13 -10q0 -5 -7 -19q-106 -176 -153 -280q-129 -288 -129 -592q0 -87 11.5 -174t25.5 -151.5t44 -144t47 -120.5t56 -112.5t49.5 -89.5t48.5 -81q7 -14 7 -18z" />
    <glyph glyph-name="uni24A2" unicode="&#x24a2;" 
d="M1516 1303q0 -36 -16 -53t-52 -17q-23 0 -33.5 13t-13 29t-20 29t-52.5 13q-31 0 -69 -17q88 -79 88 -202q0 -122 -89.5 -198.5t-250.5 -76.5q-68 0 -117 15q-58 -32 -86.5 -57.5t-28.5 -53.5q-1 -17 17 -26.5t55.5 -14t101.5 -4.5q268 0 394 -59.5t126 -196.5
q0 -135 -135.5 -205.5t-359.5 -70.5q-189 0 -278 61.5t-89 148.5q0 76 46.5 139.5t119.5 100.5q-60 7 -90.5 34t-30.5 64q0 77 166 158q-77 32 -118.5 95t-41.5 147q0 128 89 204t260 76q132 0 215 -51q35 23 80 37t75 14q138 0 138 -75zM2028 754q0 -151 -30 -290t-83 -249
t-111.5 -195t-128.5 -155q-12 -12 -24 -12q-13 0 -13 10q0 4 7 18q38 63 48.5 81t49.5 89.5t56 112.5t47 120.5t44 144t25.5 151.5t11.5 174q0 116 -19.5 230t-45 195.5t-68.5 173.5t-69.5 139t-68.5 116q-8 12 -11 18q-7 14 -7 19q0 10 13 10q11 0 24 -13
q68 -69 128.5 -159t112 -202t82 -249t30.5 -278zM410 -137q0 -10 -13 -10q-12 0 -24 12q-70 70 -128.5 155t-111.5 195t-83 249t-30 290q0 141 30.5 278t82 249t112 202t128.5 159q13 13 24 13q13 0 13 -10q0 -5 -7 -19q-106 -176 -153 -280q-129 -288 -129 -592
q0 -87 11.5 -174t25.5 -151.5t44 -144t47 -120.5t56 -112.5t49.5 -89.5t48.5 -81q7 -14 7 -18zM1214 1075q0 113 -59 184.5t-166 71.5q-201 0 -201 -219q0 -106 59.5 -174t172.5 -68q194 0 194 205zM1331 408q0 67 -35 105t-140 60.5t-300 26.5q-73 -41 -108 -99t-35 -114
q0 -94 70 -139t227 -45q74 0 137 20.5t102 52t60.5 66.5t21.5 66z" />
    <glyph glyph-name="uni24A3" unicode="&#x24a3;" 
d="M1511 127q0 -12 -14 -12h-321q-15 0 -15 12t13 12q34 3 55 12.5t30.5 26t12 31.5t2.5 39v438q0 119 -59 183.5t-134 64.5q-171 0 -284 -139v-547q0 -26 2.5 -40.5t11 -31.5t29.5 -25.5t55 -11.5q20 0 20 -12t-14 -12h-321q-15 0 -15 6v6q0 12 13 12q34 3 56 12.5t31.5 26
t12 31.5t2.5 39v1034q0 34 -16 42.5t-84 8.5q-17 0 -17 13q0 14 12 14q90 15 207 57q1 0 2 1t2 1q11 0 11 -18v-537q64 69 144 107.5t149 38.5q146 0 226.5 -88.5t80.5 -239.5v-434q0 -24 2.5 -38.5t12 -31t31 -26t56.5 -13.5q12 0 12 -12zM2028 754q0 -151 -30 -290
t-83 -249t-111.5 -195t-128.5 -155q-12 -12 -24 -12q-13 0 -13 10q0 4 7 18q38 63 48.5 81t49.5 89.5t56 112.5t47 120.5t44 144t25.5 151.5t11.5 174q0 116 -19.5 230t-45 195.5t-68.5 173.5t-69.5 139t-68.5 116q-8 12 -11 18q-7 14 -7 19q0 10 13 10q11 0 24 -13
q68 -69 128.5 -159t112 -202t82 -249t30.5 -278zM410 -137q0 -10 -13 -10q-12 0 -24 12q-70 70 -128.5 155t-111.5 195t-83 249t-30 290q0 141 30.5 278t82 249t112 202t128.5 159q13 13 24 13q13 0 13 -10q0 -5 -7 -19q-106 -176 -153 -280q-129 -288 -129 -592
q0 -87 11.5 -174t25.5 -151.5t44 -144t47 -120.5t56 -112.5t49.5 -89.5t48.5 -81q7 -14 7 -18z" />
    <glyph glyph-name="uni24A4" unicode="&#x24a4;" 
d="M1118 1327q0 -39 -28.5 -69.5t-67.5 -30.5q-37 0 -65.5 31t-28.5 69t28.5 68t65.5 30q39 0 67.5 -29.5t28.5 -68.5zM2028 754q0 -151 -30 -290t-83 -249t-111.5 -195t-128.5 -155q-12 -12 -24 -12q-13 0 -13 10q0 4 7 18q38 63 48.5 81t49.5 89.5t56 112.5t47 120.5
t44 144t25.5 151.5t11.5 174q0 116 -19.5 230t-45 195.5t-68.5 173.5t-69.5 139t-68.5 116q-8 12 -11 18q-7 14 -7 19q0 10 13 10q11 0 24 -13q68 -69 128.5 -159t112 -202t82 -249t30.5 -278zM410 -137q0 -10 -13 -10q-12 0 -24 12q-70 70 -128.5 155t-111.5 195t-83 249
t-30 290q0 141 30.5 278t82 249t112 202t128.5 159q13 13 24 13q13 0 13 -10q0 -5 -7 -19q-106 -176 -153 -280q-129 -288 -129 -592q0 -87 11.5 -174t25.5 -151.5t44 -144t47 -120.5t56 -112.5t49.5 -89.5t48.5 -81q7 -14 7 -18zM1206 127q0 -12 -12 -12h-326q-12 0 -12 12
t12 12q65 7 85 34t20 75v629q0 36 -10 42.5t-68 6.5h-21q-18 0 -18 14q0 11 12 14q108 18 213 58q1 0 2 1t2 1q11 0 11 -19v-747q0 -25 2 -39t10.5 -31.5t30 -26.5t55.5 -12q12 0 12 -12z" />
    <glyph glyph-name="uni24A5" unicode="&#x24a5;" 
d="M1159 1327q0 -37 -29 -68.5t-67 -31.5t-67 31.5t-29 68.5q0 39 29 69.5t67 30.5t67 -30.5t29 -69.5zM2028 754q0 -151 -30 -290t-83 -249t-111.5 -195t-128.5 -155q-12 -12 -24 -12q-13 0 -13 10q0 4 7 18q38 63 48.5 81t49.5 89.5t56 112.5t47 120.5t44 144t25.5 151.5
t11.5 174q0 116 -19.5 230t-45 195.5t-68.5 173.5t-69.5 139t-68.5 116q-8 12 -11 18q-7 14 -7 19q0 10 13 10q11 0 24 -13q68 -69 128.5 -159t112 -202t82 -249t30.5 -278zM410 -137q0 -10 -13 -10q-12 0 -24 12q-70 70 -128.5 155t-111.5 195t-83 249t-30 290
q0 141 30.5 278t82 249t112 202t128.5 159q13 13 24 13q13 0 13 -10q0 -5 -7 -19q-106 -176 -153 -280q-129 -288 -129 -592q0 -87 11.5 -174t25.5 -151.5t44 -144t47 -120.5t56 -112.5t49.5 -89.5t48.5 -81q7 -14 7 -18zM1128 414q0 -166 -48.5 -233.5t-157.5 -67.5
q-90 0 -141.5 42t-51.5 93q0 76 62 76q33 0 51 -18.5t18 -49.5q0 -44 13 -67t47 -23t53 17t30 72t11 159v587q0 35 -12 42.5t-68 7.5h-19q-11 0 -16 6t-2 13t12 9q119 24 213 58l2 2q4 0 4 -19v-706z" />
    <glyph glyph-name="uni24A6" unicode="&#x24a6;" 
d="M1522 129q0 -14 -15 -14h-196q-32 0 -45 16l-369 465l-55 -39v-309q0 -48 22 -76t86 -31q5 0 9 -4t4 -10q0 -12 -15 -12h-317q-15 0 -15 8v4q0 11 13 14q34 2 56 11t31.5 25.5t12 31.5t2.5 39v1040q0 34 -14.5 41.5t-83.5 7.5q-19 0 -19 15q0 11 13 14q104 16 207 57l6 2
q8 0 8 -18v-780l305 229q37 29 37 59q0 39 -68 56q-12 3 -12 16q0 10 14 10h316q10 0 10 -10q0 -11 -6 -14q-65 -16 -113 -44t-127 -91l-225 -179l364 -436q32 -37 69 -54.5t97 -25.5q13 -4 13 -14zM2028 754q0 -151 -30 -290t-83 -249t-111.5 -195t-128.5 -155
q-12 -12 -24 -12q-13 0 -13 10q0 4 7 18q38 63 48.5 81t49.5 89.5t56 112.5t47 120.5t44 144t25.5 151.5t11.5 174q0 116 -19.5 230t-45 195.5t-68.5 173.5t-69.5 139t-68.5 116q-8 12 -11 18q-7 14 -7 19q0 10 13 10q11 0 24 -13q68 -69 128.5 -159t112 -202t82 -249
t30.5 -278zM410 -137q0 -10 -13 -10q-12 0 -24 12q-70 70 -128.5 155t-111.5 195t-83 249t-30 290q0 141 30.5 278t82 249t112 202t128.5 159q13 13 24 13q13 0 13 -10q0 -5 -7 -19q-106 -176 -153 -280q-129 -288 -129 -592q0 -87 11.5 -174t25.5 -151.5t44 -144t47 -120.5
t56 -112.5t49.5 -89.5t48.5 -81q7 -14 7 -18z" />
    <glyph glyph-name="uni24A7" unicode="&#x24a7;" 
d="M1200 127q0 -12 -14 -12h-324q-9 0 -11.5 2t-2.5 10q0 12 12 12q35 4 56.5 13t29.5 26.5t10 30.5t2 39v1040q0 20 -1 27.5t-11.5 14.5t-28.5 8t-57 1q-18 0 -18 15q0 11 12 14q47 6 114 23t107 34q4 1 5 -3t1 -15v-1159q0 -48 20 -75t87 -34q12 0 12 -12zM2028 754
q0 -151 -30 -290t-83 -249t-111.5 -195t-128.5 -155q-12 -12 -24 -12q-13 0 -13 10q0 4 7 18q38 63 48.5 81t49.5 89.5t56 112.5t47 120.5t44 144t25.5 151.5t11.5 174q0 116 -19.5 230t-45 195.5t-68.5 173.5t-69.5 139t-68.5 116q-8 12 -11 18q-7 14 -7 19q0 10 13 10
q11 0 24 -13q68 -69 128.5 -159t112 -202t82 -249t30.5 -278zM410 -137q0 -10 -13 -10q-12 0 -24 12q-70 70 -128.5 155t-111.5 195t-83 249t-30 290q0 141 30.5 278t82 249t112 202t128.5 159q13 13 24 13q13 0 13 -10q0 -5 -7 -19q-106 -176 -153 -280
q-129 -288 -129 -592q0 -87 11.5 -174t25.5 -151.5t44 -144t47 -120.5t56 -112.5t49.5 -89.5t48.5 -81q7 -14 7 -18z" />
    <glyph glyph-name="uni24A8" unicode="&#x24a8;" 
d="M1692 319q0 -12 -15 -12h-309q-12 0 -12 8v4q0 13 12 15q30 2 49 9t27 21t10 25.5t2 32.5v18v443q0 247 -145 247q-148 0 -230 -141q0 -17 2 -53t2 -57v-439q0 -24 2.5 -38t11 -29.5t28.5 -25t53 -13.5q12 -6 12 -15q0 -12 -14 -12h-304q-14 0 -14 12q0 6 3.5 10.5
t8.5 4.5q34 2 54.5 10.5t29.5 25.5t11 31t2 39v443q0 127 -39.5 187t-108.5 60q-140 0 -223 -133v-557q0 -23 2.5 -38t10.5 -30.5t26 -24.5t47 -13q21 -4 21 -15q0 -12 -15 -12h-313q-15 0 -15 8v4q0 12 13 15q35 2 57 11t31 25.5t11.5 30.5t2.5 39v631q0 36 -12 43.5
t-68 7.5h-18q-17 0 -18.5 14t12.5 17q51 9 211 51h2q12 0 12 -18v-119q39 66 102.5 102.5t133.5 36.5q100 0 154 -40t79 -128q44 79 112.5 123.5t143.5 44.5q138 0 196 -79t58 -248v-439q0 -47 20 -73t82 -33l4 -2q4 -3 6.5 -6t2.5 -7zM2028 754q0 -151 -30 -290t-83 -249
t-111.5 -195t-128.5 -155q-12 -12 -24 -12q-13 0 -13 10q0 4 7 18q38 63 48.5 81t49.5 89.5t56 112.5t47 120.5t44 144t25.5 151.5t11.5 174q0 116 -19.5 230t-45 195.5t-68.5 173.5t-69.5 139t-68.5 116q-8 12 -11 18q-7 14 -7 19q0 10 13 10q11 0 24 -13
q68 -69 128.5 -159t112 -202t82 -249t30.5 -278zM410 -137q0 -10 -13 -10q-12 0 -24 12q-70 70 -128.5 155t-111.5 195t-83 249t-30 290q0 141 30.5 278t82 249t112 202t128.5 159q13 13 24 13q13 0 13 -10q0 -5 -7 -19q-106 -176 -153 -280q-129 -288 -129 -592
q0 -87 11.5 -174t25.5 -151.5t44 -144t47 -120.5t56 -112.5t49.5 -89.5t48.5 -81q7 -14 7 -18z" />
    <glyph glyph-name="uni24A9" unicode="&#x24a9;" 
d="M2028 754q0 -151 -30 -290t-83 -249t-111.5 -195t-128.5 -155q-12 -12 -24 -12q-13 0 -13 10q0 4 7 18q38 63 48.5 81t49.5 89.5t56 112.5t47 120.5t44 144t25.5 151.5t11.5 174q0 116 -19.5 230t-45 195.5t-68.5 173.5t-69.5 139t-68.5 116q-8 12 -11 18q-7 14 -7 19
q0 10 13 10q11 0 24 -13q68 -69 128.5 -159t112 -202t82 -249t30.5 -278zM1501 317q0 -12 -14 -12h-322q-14 0 -14 12q0 13 12 15q64 4 82.5 31t18.5 77v443q0 118 -59 181.5t-134 63.5q-172 0 -285 -139v-549q0 -26 2.5 -41t11.5 -31.5t30 -25t55 -10.5q20 -4 20 -15
q0 -12 -14 -12h-322q-14 0 -14 8v4q0 13 12 15q65 4 84 30.5t19 77.5v629q0 36 -12 43.5t-70 7.5h-19q-18 0 -18 17q0 5 4 9.5t10 4.5q71 12 207 51h6q8 0 8 -18v-125q64 69 143.5 107t149.5 38q146 0 226.5 -88t80.5 -239v-437q0 -24 3 -39.5t12.5 -31.5t31 -25t56.5 -12
q12 0 12 -15zM410 -137q0 -10 -13 -10q-12 0 -24 12q-70 70 -128.5 155t-111.5 195t-83 249t-30 290q0 141 30.5 278t82 249t112 202t128.5 159q13 13 24 13q13 0 13 -10q0 -5 -7 -19q-106 -176 -153 -280q-129 -288 -129 -592q0 -87 11.5 -174t25.5 -151.5t44 -144
t47 -120.5t56 -112.5t49.5 -89.5t48.5 -81q7 -14 7 -18z" />
    </font>
</defs>
</svg>
